<svg version="1.1" viewBox="0.0 0.0 157.92125984251967 100.0" fill="none" stroke="none" stroke-linecap="square" stroke-miterlimit="10" xmlns:xlink="http://www.w3.org/1999/xlink" xmlns="http://www.w3.org/2000/svg"><clipPath id="p.0"><path d="m0 0l157.92126 0l0 100.0l-157.92126 0l0 -100.0z" clip-rule="nonzero"/></clipPath><g clip-path="url(#p.0)"><path fill="#000000" fill-opacity="0.0" d="m0 0l157.92126 0l0 100.0l-157.92126 0z" fill-rule="evenodd"/><path fill="#000000" fill-opacity="0.0" d="m61.627296 8.2021l83.84252 0l0 54.929134l-83.84252 0z" fill-rule="evenodd"/><path fill="#000000" d="m81.54917 45.3621l-2.578125 0l0 -16.421875q-0.921875 0.890625 -2.4375 1.78125q-1.515625 0.875 -2.71875 1.328125l0 -2.5q2.171875 -1.015625 3.78125 -2.453125q1.625 -1.453125 2.296875 -2.8125l1.65625 0l0 21.078125zm14.873413 0l0 -5.03125l-9.109375 0l0 -2.359375l9.578125 -13.609375l2.109375 0l0 13.609375l2.828125 0l0 2.359375l-2.828125 0l0 5.03125l-2.578125 0zm0 -7.390625l0 -9.46875l-6.578125 9.46875l6.578125 0z" fill-rule="nonzero"/><path fill="#000000" fill-opacity="0.0" d="m330.3071 164.2441l535.5276 0l0 42.015747l-535.5276 0z" fill-rule="evenodd"/></g></svg>