<svg version="1.1" viewBox="0.0 0.0 505.0 434.0" fill="none" stroke="none" stroke-linecap="square" stroke-miterlimit="10" xmlns:xlink="http://www.w3.org/1999/xlink" xmlns="http://www.w3.org/2000/svg"><clipPath id="p.0"><path d="m0 0l505.0 0l0 434.0l-505.0 0l0 -434.0z" clip-rule="nonzero"/></clipPath><g clip-path="url(#p.0)"><path fill="#000000" fill-opacity="0.0" d="m0 0l505.0 0l0 434.0l-505.0 0z" fill-rule="evenodd"/><path fill="#000000" fill-opacity="0.0" d="m182.72966 6.6062994l57.007874 0l0 63.02362l-57.007874 0z" fill-rule="evenodd"/><path fill="#000000" d="m193.35466 41.885048l3.203125 -0.28125q0.234375 1.9375 1.0625 3.171875q0.84375 1.234375 2.59375 2.0q1.765625 0.765625 3.96875 0.765625q1.9375 0 3.4375 -0.578125q1.5 -0.578125 2.21875 -1.578125q0.734375 -1.015625 0.734375 -2.21875q0 -1.203125 -0.703125 -2.109375q-0.703125 -0.90625 -2.3125 -1.53125q-1.046875 -0.40625 -4.59375 -1.25q-3.546875 -0.859375 -4.96875 -1.609375q-1.859375 -0.96875 -2.765625 -2.390625q-0.890625 -1.4375 -0.890625 -3.218752q0 -1.953125 1.09375 -3.640625q1.109375 -1.703125 3.234375 -2.578125q2.140625 -0.875 4.734375 -0.875q2.859375 0 5.046875 0.921875q2.203125 0.921875 3.375 2.71875q1.171875 1.78125 1.265625 4.046875l-3.265625 0.25q-0.265625 -2.4375 -1.796875 -3.6875q-1.515625 -1.25 -4.484375 -1.25q-3.09375 0 -4.515625 1.140625q-1.40625 1.125 -1.40625 2.71875q0 1.3906269 1.0 2.296877q0.984375 0.890625 5.140625 1.828125q4.15625 0.9375 5.703125 1.640625q2.25 1.046875 3.3125 2.640625q1.078125 1.578125 1.078125 3.65625q0 2.0625 -1.171875 3.890625q-1.171875 1.8125 -3.390625 2.828125q-2.203125 1.0 -4.953125 1.0q-3.5 0 -5.875 -1.015625q-2.359375 -1.015625 -3.703125 -3.0625q-1.34375 -2.0625 -1.40625 -4.640625z" fill-rule="nonzero"/><path fill="#000000" fill-opacity="0.0" d="m219.05774 55.09449l68.75592 77.85827" fill-rule="evenodd"/><path stroke="#000000" stroke-width="2.0" stroke-linejoin="round" stroke-linecap="butt" d="m219.05774 55.09449l68.75592 77.85827" fill-rule="evenodd"/><path fill="#000000" fill-opacity="0.0" d="m277.76117 129.58792l91.68503 0l0 58.173233l-91.68503 0z" fill-rule="evenodd"/><path fill="#000000" d="m295.7768 169.30792l-8.875 -22.90625l3.28125 0l5.953125 16.640625q0.71875 2.0 1.203125 3.75q0.53125 -1.875 1.234375 -3.75l6.1875 -16.640625l3.09375 0l-8.96875 22.90625l-3.109375 0zm14.796875 0l0 -22.90625l8.640625 0q2.28125 0 3.484375 0.21875q1.6875 0.28125 2.828125 1.078125q1.140625 0.78125 1.828125 2.203125q0.703125 1.421875 0.703125 3.125q0 2.921875 -1.859375 4.953125q-1.859375 2.015625 -6.71875 2.015625l-5.875 0l0 9.3125l-3.03125 0zm3.03125 -12.015625l5.921875 0q2.9375 0 4.171875 -1.09375q1.234375 -1.09375 1.234375 -3.078125q0 -1.4375 -0.734375 -2.453125q-0.71875 -1.03125 -1.90625 -1.359375q-0.765625 -0.203125 -2.828125 -0.203125l-5.859375 0l0 8.1875z" fill-rule="nonzero"/><path fill="#000000" fill-opacity="0.0" d="m187.19948 58.034122l-62.614174 68.18898" fill-rule="evenodd"/><path stroke="#000000" stroke-width="2.0" stroke-linejoin="round" stroke-linecap="butt" d="m187.19948 58.034122l-62.614174 68.18898" fill-rule="evenodd"/><path fill="#000000" fill-opacity="0.0" d="m84.343834 125.115486l83.84252 0l0 56.566933l-83.84252 0z" fill-rule="evenodd"/><path fill="#000000" d="m95.67196 163.55548l0 -21.9375l2.984375 0l11.53125 17.21875l0 -17.21875l2.78125 0l0 21.9375l-2.984375 0l-11.515625 -17.25l0 17.25l-2.796875 0zm22.170212 0l0 -21.9375l8.28125 0q2.1874924 0 3.3437424 0.203125q1.609375 0.265625 2.703125 1.03125q1.09375 0.75 1.75 2.109375q0.671875 1.359375 0.671875 3.0q0 2.796875 -1.78125 4.734375q-1.78125 1.9375 -6.4374924 1.9375l-5.625 0l0 8.921875l-2.90625 0zm2.90625 -11.515625l5.671875 0q2.8124924 0 3.9999924 -1.046875q1.1875 -1.046875 1.1875 -2.9375q0 -1.390625 -0.703125 -2.359375q-0.6875 -0.984375 -1.828125 -1.296875q-0.734375 -0.203125 -2.7187424 -0.203125l-5.609375 0l0 7.84375z" fill-rule="nonzero"/><path fill="#000000" fill-opacity="0.0" d="m94.40682 183.25197l643.9685 0l0 42.015747l-643.9685 0z" fill-rule="evenodd"/><path fill="#000000" fill-opacity="0.0" d="m96.64304 175.4252l-44.724407 57.007874" fill-rule="evenodd"/><path stroke="#000000" stroke-width="2.0" stroke-linejoin="round" stroke-linecap="butt" d="m96.64304 175.4252l-44.724407 57.007874" fill-rule="evenodd"/><path fill="#000000" fill-opacity="0.0" d="m9.435696 229.08923l83.842514 0l0 54.92914l-83.842514 0z" fill-rule="evenodd"/><path fill="#000000" d="m20.70132 266.24924l0 -21.0l7.234375 0q2.4375 0 3.734375 0.3125q1.796875 0.40625 3.078125 1.5q1.65625 1.40625 2.484375 3.59375q0.828125 2.171875 0.828125 4.984375q0 2.390625 -0.5625 4.234375q-0.5625 1.84375 -1.4375 3.0625q-0.875 1.203125 -1.921875 1.90625q-1.03125 0.6875 -2.5 1.046875q-1.453125 0.359375 -3.359375 0.359375l-7.578125 0zm2.78125 -2.484375l4.46875 0q2.078125 0 3.265625 -0.375q1.1875 -0.390625 1.890625 -1.09375q0.984375 -0.984375 1.53125 -2.65625q0.546875 -1.671875 0.546875 -4.046875q0 -3.296875 -1.078125 -5.0625q-1.078125 -1.765625 -2.625 -2.375q-1.125 -0.421875 -3.59375 -0.421875l-4.40625 0l0 16.03125zm18.445465 2.484375l0 -21.0l15.1875 0l0 2.484375l-12.40625 0l0 6.421875l11.625 0l0 2.46875l-11.625 0l0 7.140625l12.890625 0l0 2.484375l-15.671875 0zm24.858501 0l0 -18.515625l-6.921871 0l0 -2.484375l16.640621 0l0 2.484375l-6.953125 0l0 18.515625l-2.765625 0z" fill-rule="nonzero"/><path fill="#000000" fill-opacity="0.0" d="m131.29921 172.07086l41.70079 60.72441" fill-rule="evenodd"/><path stroke="#000000" stroke-width="2.0" stroke-linejoin="round" stroke-linecap="butt" d="m131.29921 172.07086l41.70079 60.72441" fill-rule="evenodd"/><path fill="#000000" fill-opacity="0.0" d="m143.94226 229.4357l83.842514 0l0 54.92914l-83.842514 0z" fill-rule="evenodd"/><path fill="#000000" d="m155.17664 266.5957l0 -21.000015l2.84375 0l11.03125 16.48439l0 -16.48439l2.671875 0l0 21.000015l-2.859375 0l-11.03125 -16.500015l0 16.500015l-2.65625 0zm21.17984 0l0 -21.000015l2.84375 0l11.03125 16.48439l0 -16.48439l2.671875 0l0 21.000015l-2.859375 0l-11.03125 -16.500015l0 16.500015l-2.65625 0z" fill-rule="nonzero"/><path fill="#000000" fill-opacity="0.0" d="m11.6745405 268.22046l67.08662 0l0 51.716553l-67.08662 0z" fill-rule="evenodd"/><path fill="#000000" d="m27.580791 302.82047l0 -16.828125l-6.28125 0l0 -2.25l15.125 0l0 2.25l-6.3125 0l0 16.828125l-2.53125 0zm11.12645 0l0 -19.078125l2.34375 0l0 6.84375q1.640625 -1.90625 4.140625 -1.90625q1.546875 0 2.671875 0.609375q1.140625 0.609375 1.625 1.671875q0.484375 1.0625 0.484375 3.09375l0 8.765625l-2.34375 0l0 -8.765625q0 -1.75 -0.765625 -2.546875q-0.75 -0.8125 -2.15625 -0.8125q-1.03125 0 -1.953125 0.546875q-0.921875 0.546875 -1.3125 1.46875q-0.390625 0.921875 -0.390625 2.546875l0 7.5625l-2.34375 0zm24.293686 -4.453125l2.4218712 0.296875q-0.578125 2.125 -2.1249962 3.296875q-1.546875 1.171875 -3.953125 1.171875q-3.03125 0 -4.8125 -1.859375q-1.78125 -1.875 -1.78125 -5.25q0 -3.484375 1.796875 -5.40625q1.796875 -1.9375 4.671875 -1.9375q2.765625 0 4.515625 1.890625q1.7656212 1.890625 1.7656212 5.3125q0 0.203125 -0.015625 0.625l-10.312496 0q0.140625 2.28125 1.296875 3.5q1.15625 1.203125 2.890625 1.203125q1.28125 0 2.1875 -0.671875q0.921875 -0.6875 1.453125 -2.171875zm-7.6875 -3.78125l7.71875 0q-0.15625 -1.75 -0.890625 -2.625q-1.125 -1.34375 -2.90625 -1.34375q-1.609375 0 -2.71875 1.078125q-1.09375 1.078125 -1.203125 2.890625z" fill-rule="nonzero"/><path fill="#000000" fill-opacity="0.0" d="m140.59317 268.56693l86.86615 0l0 51.716553l-86.86615 0z" fill-rule="evenodd"/><path fill="#000000" d="m151.34317 303.16693l0 -13.828125l2.109375 0l0 1.9375q0.640625 -1.015625 1.71875 -1.625q1.09375 -0.625 2.46875 -0.625q1.53125 0 2.515625 0.640625q0.984375 0.640625 1.390625 1.78125q1.640625 -2.421875 4.265625 -2.421875q2.0625 0 3.15625 1.140625q1.109375 1.140625 1.109375 3.515625l0 9.484375l-2.328125 0l0 -8.703125q0 -1.40625 -0.234375 -2.015625q-0.21875 -0.625 -0.828125 -1.0q-0.59375 -0.390625 -1.390625 -0.390625q-1.46875 0 -2.4375 0.96875q-0.953125 0.96875 -0.953125 3.109375l0 8.03125l-2.34375 0l0 -8.984375q0 -1.5625 -0.578125 -2.34375q-0.5625 -0.78125 -1.875 -0.78125q-0.984375 0 -1.828125 0.53125q-0.828125 0.515625 -1.21875 1.515625q-0.375 1.0 -0.375 2.890625l0 7.171875l-2.34375 0zm31.236115 -1.703125q-1.3125 1.109375 -2.515625 1.5625q-1.203125 0.453125 -2.578125 0.453125q-2.28125 0 -3.5 -1.109375q-1.21875 -1.109375 -1.21875 -2.84375q0 -1.015625 0.453125 -1.859375q0.46875 -0.84375 1.21875 -1.34375q0.75 -0.515625 1.6875 -0.765625q0.6875 -0.1875 2.078125 -0.359375q2.828125 -0.328125 4.171875 -0.796875q0.015625 -0.484375 0.015625 -0.625q0 -1.421875 -0.65625 -2.015625q-0.90625 -0.796875 -2.671875 -0.796875q-1.65625 0 -2.453125 0.59375q-0.78125 0.578125 -1.15625 2.046875l-2.296875 -0.3125q0.3125 -1.46875 1.03125 -2.375q0.71875 -0.90625 2.0625 -1.390625q1.359375 -0.5 3.140625 -0.5q1.78125 0 2.875 0.421875q1.109375 0.421875 1.625 1.046875q0.53125 0.625 0.734375 1.59375q0.125 0.59375 0.125 2.15625l0 3.125q0 3.265625 0.140625 4.140625q0.15625 0.859375 0.59375 1.65625l-2.4375 0q-0.375 -0.734375 -0.46875 -1.703125zm-0.203125 -5.234375q-1.265625 0.515625 -3.828125 0.890625q-1.4375 0.203125 -2.046875 0.46875q-0.59375 0.25 -0.921875 0.75q-0.3125 0.5 -0.3125 1.125q0 0.9375 0.703125 1.5625q0.703125 0.625 2.078125 0.625q1.34375 0 2.390625 -0.59375q1.0625 -0.59375 1.5625 -1.625q0.375 -0.796875 0.375 -2.34375l0 -0.859375zm5.996811 6.9375l0 -13.828125l2.109375 0l0 1.96875q1.53125 -2.28125 4.40625 -2.28125q1.25 0 2.296875 0.453125q1.046875 0.453125 1.5625 1.1875q0.53125 0.71875 0.734375 1.71875q0.125 0.65625 0.125 2.28125l0 8.5l-2.34375 0l0 -8.40625q0 -1.4375 -0.28125 -2.140625q-0.265625 -0.71875 -0.96875 -1.140625q-0.6875 -0.421875 -1.625 -0.421875q-1.484375 0 -2.578125 0.953125q-1.09375 0.953125 -1.09375 3.609375l0 7.546875l-2.34375 0z" fill-rule="nonzero"/><path fill="#000000" fill-opacity="0.0" d="m330.3071 164.2441l535.5276 0l0 42.015747l-535.5276 0z" fill-rule="evenodd"/><path fill="#000000" fill-opacity="0.0" d="m305.71127 179.89764l-38.015747 58.141724" fill-rule="evenodd"/><path stroke="#000000" stroke-width="2.0" stroke-linejoin="round" stroke-linecap="butt" d="m305.71127 179.89764l-38.015747 58.141724" fill-rule="evenodd"/><path fill="#000000" fill-opacity="0.0" d="m321.3622 177.4252l49.259827 57.606293" fill-rule="evenodd"/><path stroke="#000000" stroke-width="2.0" stroke-linejoin="round" stroke-linecap="butt" d="m321.3622 177.4252l49.259827 57.606293" fill-rule="evenodd"/><path fill="#000000" fill-opacity="0.0" d="m239.3202 230.90027l83.842514 0l0 54.92914l-83.842514 0z" fill-rule="evenodd"/><path fill="#000000" d="m256.58585 268.06027l-8.14064 -21.000015l3.015625 0l5.4531403 15.250015q0.65625 1.84375 1.09375 3.4375q0.5 -1.71875 1.140625 -3.4375l5.671875 -15.250015l2.828125 0l-8.21875 21.000015l-2.84375 0zm13.436615 0l0 -21.000015l7.890625 0q2.40625 0 3.859375 0.640625q1.453125 0.640625 2.265625 1.96875q0.828125 1.328125 0.828125 2.765625q0 1.34375 -0.734375 2.53125q-0.734375 1.1875153 -2.203125 1.9218903q1.90625 0.5625 2.921875 1.90625q1.03125 1.34375 1.03125 3.171875q0 1.484375 -0.625 2.75q-0.625 1.265625 -1.546875 1.953125q-0.90625 0.6875 -2.296875 1.046875q-1.375 0.34375 -3.375 0.34375l-8.015625 0zm2.78125 -12.17189l4.546875 0q1.84375 0 2.640625 -0.25q1.0625 -0.3125 1.59375 -1.03125q0.546875 -0.734375 0.546875 -1.84375q0 -1.046875 -0.5 -1.828125q-0.5 -0.796875 -1.4375 -1.09375q-0.921875 -0.296875 -3.1875 -0.296875l-4.203125 0l0 6.34375zm0 9.687515l5.234375 0q1.34375 0 1.890625 -0.09375q0.953125 -0.171875 1.59375 -0.5625q0.65625 -0.40625 1.0625 -1.171875q0.421875 -0.765625 0.421875 -1.78125q0 -1.171875 -0.609375 -2.03125q-0.59375 -0.875 -1.671875 -1.21875q-1.0625 -0.34375 -3.0625 -0.34375l-4.859375 0l0 7.203125z" fill-rule="nonzero"/><path fill="#000000" fill-opacity="0.0" d="m354.82678 228.83727l83.8425 0l0 54.929153l-83.8425 0z" fill-rule="evenodd"/><path fill="#000000" d="m366.06116 265.99728l0 -21.000015l2.84375 0l11.03125 16.48439l0 -16.48439l2.671875 0l0 21.000015l-2.859375 0l-11.03125 -16.500015l0 16.500015l-2.65625 0zm21.21109 0l0 -21.000015l7.921875 0q2.078125 0 3.1875 0.203125q1.546875 0.265625 2.59375 0.984375q1.046875 0.71875 1.671875 2.03125q0.640625 1.296875 0.640625 2.859375q0 2.671875 -1.703125 4.53125q-1.703125 1.8593903 -6.15625 1.8593903l-5.375 0l0 8.53125l-2.78125 0zm2.78125 -11.01564l5.421875 0q2.6875 0 3.8125 -1.0q1.140625 -1.0 1.140625 -2.8125q0 -1.328125 -0.671875 -2.265625q-0.65625 -0.9375 -1.75 -1.234375q-0.703125 -0.1875 -2.59375 -0.1875l-5.359375 0l0 7.5z" fill-rule="nonzero"/><path fill="#000000" fill-opacity="0.0" d="m237.51181 281.63516l86.078735 0l0 42.015747l-86.078735 0z" fill-rule="evenodd"/><path fill="#000000" fill-opacity="0.0" d="m237.08661 268.9134l86.86615 0l0 51.716522l-86.86615 0z" fill-rule="evenodd"/><path fill="#000000" d="m246.89911 299.3884l2.328125 -0.359375q0.1875 1.390625 1.078125 2.140625q0.890625 0.734375 2.5 0.734375q1.609375 0 2.390625 -0.65625q0.78125 -0.65625 0.78125 -1.546875q0 -0.796875 -0.6875 -1.25q-0.484375 -0.3125 -2.390625 -0.796875q-2.578125 -0.65625 -3.578125 -1.125q-1.0 -0.46875 -1.515625 -1.3125q-0.515625 -0.84375 -0.515625 -1.859375q0 -0.921875 0.421875 -1.703125q0.4375 -0.796875 1.15625 -1.3125q0.546875 -0.40625 1.484375 -0.6875q0.953125 -0.28125 2.03125 -0.28125q1.625 0 2.859375 0.46875q1.234375 0.46875 1.8125 1.28125q0.59375 0.796875 0.8125 2.140625l-2.296875 0.3125q-0.15625 -1.078125 -0.90625 -1.671875q-0.75 -0.59375 -2.109375 -0.59375q-1.609375 0 -2.3125 0.53125q-0.6875 0.53125 -0.6875 1.25q0 0.453125 0.296875 0.8125q0.28125 0.375 0.890625 0.625q0.359375 0.140625 2.078125 0.609375q2.484375 0.65625 3.46875 1.078125q0.984375 0.421875 1.53125 1.234375q0.5625 0.796875 0.5625 2.0q0 1.171875 -0.6875 2.21875q-0.671875 1.03125 -1.96875 1.59375q-1.28125 0.5625 -2.90625 0.5625q-2.703125 0 -4.125 -1.109375q-1.40625 -1.125 -1.796875 -3.328125zm23.296875 2.421875q-1.3125 1.109375 -2.515625 1.5625q-1.203125 0.453125 -2.578125 0.453125q-2.28125 0 -3.5 -1.109375q-1.21875 -1.109375 -1.21875 -2.84375q0 -1.015625 0.453125 -1.859375q0.46875 -0.84375 1.21875 -1.34375q0.75 -0.515625 1.6875 -0.765625q0.6875 -0.1875 2.078125 -0.359375q2.828125 -0.328125 4.171875 -0.796875q0.015625 -0.484375 0.015625 -0.625q0 -1.421875 -0.65625 -2.015625q-0.90625 -0.796875 -2.671875 -0.796875q-1.65625 0 -2.453125 0.59375q-0.78125 0.578125 -1.15625 2.046875l-2.296875 -0.3125q0.3125 -1.46875 1.03125 -2.375q0.71875 -0.90625 2.0625 -1.390625q1.359375 -0.5 3.140625 -0.5q1.78125 0 2.875 0.421875q1.109375 0.421875 1.625 1.046875q0.53125 0.625 0.734375 1.59375q0.125 0.59375 0.125 2.15625l0 3.125q0 3.265625 0.140625 4.140625q0.15625 0.859375 0.59375 1.65625l-2.4375 0q-0.375 -0.734375 -0.46875 -1.703125zm-0.203125 -5.234375q-1.265625 0.515625 -3.828125 0.890625q-1.4375 0.203125 -2.046875 0.46875q-0.59375 0.25 -0.921875 0.75q-0.3125 0.5 -0.3125 1.125q0 0.9375 0.703125 1.5625q0.703125 0.625 2.078125 0.625q1.34375 0 2.390625 -0.59375q1.0625 -0.59375 1.5625 -1.625q0.375 -0.796875 0.375 -2.34375l0 -0.859375zm8.559326 6.9375l-4.234375 -13.828125l2.421875 0l2.203125 7.984375l0.8125 2.96875q0.0625 -0.21875 0.71875 -2.859375l2.203125 -8.09375l2.40625 0l2.0625 8.015625l0.6875 2.65625l0.796875 -2.671875l2.375 -8.0l2.28125 0l-4.328125 13.828125l-2.4375 0l-2.1875 -8.28125l-0.546875 -2.359375l-2.796875 10.640625l-2.4375 0z" fill-rule="nonzero"/><path fill="#000000" fill-opacity="0.0" d="m375.59842 282.68503l-36.59842 53.322845" fill-rule="evenodd"/><path stroke="#000000" stroke-width="2.0" stroke-linejoin="round" stroke-linecap="butt" d="m375.59842 282.68503l-36.59842 53.322845" fill-rule="evenodd"/><path fill="#000000" fill-opacity="0.0" d="m304.07086 336.35434l83.84253 0l0 54.92914l-83.84253 0z" fill-rule="evenodd"/><path fill="#000000" d="m315.3365 373.51434l0 -21.0l7.234375 0q2.4375 0 3.734375 0.3125q1.796875 0.40625 3.078125 1.5q1.65625 1.40625 2.484375 3.59375q0.828125 2.171875 0.828125 4.984375q0 2.390625 -0.5625 4.234375q-0.5625 1.84375 -1.4375 3.0625q-0.875 1.203125 -1.921875 1.90625q-1.03125 0.6875 -2.5 1.046875q-1.453125 0.359375 -3.359375 0.359375l-7.578125 0zm2.78125 -2.484375l4.46875 0q2.078125 0 3.265625 -0.375q1.1875 -0.390625 1.890625 -1.09375q0.984375 -0.984375 1.53125 -2.65625q0.546875 -1.671875 0.546875 -4.046875q0 -3.296875 -1.078125 -5.0625q-1.078125 -1.765625 -2.625 -2.375q-1.125 -0.421875 -3.59375 -0.421875l-4.40625 0l0 16.03125zm18.445465 2.484375l0 -21.0l15.1875 0l0 2.484375l-12.40625 0l0 6.421875l11.625 0l0 2.46875l-11.625 0l0 7.140625l12.890625 0l0 2.484375l-15.671875 0zm24.85852 0l0 -18.515625l-6.921875 0l0 -2.484375l16.640625 0l0 2.484375l-6.953125 0l0 18.515625l-2.765625 0z" fill-rule="nonzero"/><path fill="#000000" fill-opacity="0.0" d="m403.8294 279.33597l41.700775 60.724396" fill-rule="evenodd"/><path stroke="#000000" stroke-width="2.0" stroke-linejoin="round" stroke-linecap="butt" d="m403.8294 279.33597l41.700775 60.724396" fill-rule="evenodd"/><path fill="#000000" fill-opacity="0.0" d="m425.75854 336.35434l83.8425 0l0 54.92914l-83.8425 0z" fill-rule="evenodd"/><path fill="#000000" d="m436.99292 373.51434l0 -21.0l2.84375 0l11.03125 16.484375l0 -16.484375l2.671875 0l0 21.0l-2.859375 0l-11.03125 -16.5l0 16.5l-2.65625 0zm21.17984 0l0 -21.0l2.84375 0l11.03125 16.484375l0 -16.484375l2.671875 0l0 21.0l-2.859375 0l-11.03125 -16.5l0 16.5l-2.65625 0z" fill-rule="nonzero"/><path fill="#000000" fill-opacity="0.0" d="m312.44882 372.01837l67.08661 0l0 51.716522l-67.08661 0z" fill-rule="evenodd"/><path fill="#000000" d="m328.32382 404.52463l0.328125 2.0625q-0.984375 0.21875 -1.765625 0.21875q-1.265625 0 -1.96875 -0.40625q-0.703125 -0.40625 -1.0 -1.0625q-0.28125 -0.65625 -0.28125 -2.765625l0 -7.953125l-1.71875 0l0 -1.828125l1.71875 0l0 -3.421875l2.328125 -1.40625l0 4.828125l2.359375 0l0 1.828125l-2.359375 0l0 8.078125q0 1.0 0.125 1.296875q0.125 0.28125 0.40625 0.453125q0.28125 0.171875 0.796875 0.171875q0.390625 0 1.03125 -0.09375zm2.2809448 2.09375l0 -19.078125l2.34375 0l0 6.84375q1.640625 -1.90625 4.140625 -1.90625q1.546875 0 2.671875 0.609375q1.140625 0.609375 1.625 1.671875q0.484375 1.0625 0.484375 3.09375l0 8.765625l-2.34375 0l0 -8.765625q0 -1.75 -0.765625 -2.546875q-0.75 -0.8125 -2.15625 -0.8125q-1.03125 0 -1.953125 0.546875q-0.921875 0.546875 -1.3125 1.46875q-0.390625 0.921875 -0.390625 2.546875l0 7.5625l-2.34375 0zm24.293701 -4.453125l2.421875 0.296875q-0.578125 2.125 -2.125 3.296875q-1.546875 1.171875 -3.953125 1.171875q-3.03125 0 -4.8125 -1.859375q-1.78125 -1.875 -1.78125 -5.25q0 -3.484375 1.796875 -5.40625q1.796875 -1.9375 4.671875 -1.9375q2.765625 0 4.515625 1.890625q1.765625 1.890625 1.765625 5.3125q0 0.203125 -0.015625 0.625l-10.3125 0q0.140625 2.28125 1.296875 3.5q1.15625 1.203125 2.890625 1.203125q1.28125 0 2.1875 -0.671875q0.921875 -0.6875 1.453125 -2.171875zm-7.6875 -3.78125l7.71875 0q-0.15625 -1.75 -0.890625 -2.625q-1.125 -1.34375 -2.90625 -1.34375q-1.609375 0 -2.71875 1.078125q-1.09375 1.078125 -1.203125 2.890625z" fill-rule="nonzero"/><path fill="#000000" fill-opacity="0.0" d="m420.86124 372.01837l83.8425 0l0 51.716522l-83.8425 0z" fill-rule="evenodd"/><path fill="#000000" d="m432.17374 406.61838l0 -12.0l-2.0625 0l0 -1.828125l2.0625 0l0 -1.46875q0 -1.390625 0.25 -2.0625q0.34375 -0.921875 1.1875 -1.484375q0.859375 -0.5625 2.390625 -0.5625q0.984375 0 2.1875 0.234375l-0.34375 2.046875q-0.734375 -0.140625 -1.390625 -0.140625q-1.0625 0 -1.515625 0.46875q-0.4375 0.453125 -0.4375 1.703125l0 1.265625l2.703125 0l0 1.828125l-2.703125 0l0 12.0l-2.328125 0zm5.98407 -6.90625q0 -3.84375 2.125 -5.6875q1.78125 -1.546875 4.34375 -1.546875q2.859375 0 4.65625 1.875q1.8125 1.859375 1.8125 5.15625q0 2.671875 -0.796875 4.203125q-0.796875 1.53125 -2.328125 2.375q-1.53125 0.84375 -3.34375 0.84375q-2.890625 0 -4.6875 -1.859375q-1.78125 -1.859375 -1.78125 -5.359375zm2.40625 0q0 2.65625 1.15625 3.984375q1.15625 1.3125 2.90625 1.3125q1.75 0 2.90625 -1.328125q1.15625 -1.328125 1.15625 -4.046875q0 -2.5625 -1.171875 -3.890625q-1.15625 -1.328125 -2.890625 -1.328125q-1.75 0 -2.90625 1.328125q-1.15625 1.3125 -1.15625 3.96875zm12.418701 0q0 -3.84375 2.125 -5.6875q1.78125 -1.546875 4.34375 -1.546875q2.859375 0 4.65625 1.875q1.8125 1.859375 1.8125 5.15625q0 2.671875 -0.796875 4.203125q-0.796875 1.53125 -2.328125 2.375q-1.53125 0.84375 -3.34375 0.84375q-2.890625 0 -4.6875 -1.859375q-1.78125 -1.859375 -1.78125 -5.359375zm2.40625 0q0 2.65625 1.15625 3.984375q1.15625 1.3125 2.90625 1.3125q1.75 0 2.90625 -1.328125q1.15625 -1.328125 1.15625 -4.046875q0 -2.5625 -1.171875 -3.890625q-1.15625 -1.328125 -2.890625 -1.328125q-1.75 0 -2.90625 1.328125q-1.15625 1.3125 -1.15625 3.96875zm22.246796 6.90625l0 -1.75q-1.3125 2.0625 -3.859375 2.0625q-1.65625 0 -3.046875 -0.90625q-1.375 -0.921875 -2.140625 -2.546875q-0.765625 -1.640625 -0.765625 -3.75q0 -2.078125 0.6875 -3.765625q0.703125 -1.6875 2.078125 -2.578125q1.375 -0.90625 3.078125 -0.90625q1.25 0 2.21875 0.53125q0.984375 0.53125 1.59375 1.375l0 -6.84375l2.34375 0l0 19.078125l-2.1875 0zm-7.40625 -6.890625q0 2.640625 1.125 3.96875q1.125 1.3125 2.640625 1.3125q1.53125 0 2.609375 -1.25q1.078125 -1.265625 1.078125 -3.84375q0 -2.84375 -1.09375 -4.171875q-1.09375 -1.328125 -2.703125 -1.328125q-1.546875 0 -2.609375 1.28125q-1.046875 1.28125 -1.046875 4.03125z" fill-rule="nonzero"/></g></svg>