<svg version="1.1" viewBox="0.0 0.0 503.41207349081367 398.2834645669291" fill="none" stroke="none" stroke-linecap="square" stroke-miterlimit="10" xmlns:xlink="http://www.w3.org/1999/xlink" xmlns="http://www.w3.org/2000/svg"><clipPath id="p.0"><path d="m0 0l503.41208 0l0 398.28348l-503.41208 0l0 -398.28348z" clip-rule="nonzero"/></clipPath><g clip-path="url(#p.0)"><path fill="#000000" fill-opacity="0.0" d="m0 0l503.41208 0l0 398.28348l-503.41208 0z" fill-rule="evenodd"/><path fill="#000000" fill-opacity="0.0" d="m182.72966 6.6062994l57.007874 0l0 63.02362l-57.007874 0z" fill-rule="evenodd"/><path fill="#000000" d="m200.74529 45.994423l0 -7.0625l-7.015625 0l0 -2.953125l7.015625 0l0 -7.015627l2.984375 0l0 7.015627l7.015625 0l0 2.953125l-7.015625 0l0 7.0625l-2.984375 0z" fill-rule="nonzero"/><path fill="#000000" fill-opacity="0.0" d="m219.05774 55.09449l68.75592 77.85827" fill-rule="evenodd"/><path stroke="#000000" stroke-width="2.0" stroke-linejoin="round" stroke-linecap="butt" d="m219.05774 55.09449l68.75592 77.85827" fill-rule="evenodd"/><path fill="#000000" fill-opacity="0.0" d="m277.76117 129.58792l91.68503 0l0 58.173233l-91.68503 0z" fill-rule="evenodd"/><path fill="#000000" d="m312.55804 165.6048l0 -6.28125l-6.234375 0l0 -2.625l6.234375 0l0 -6.234375l2.65625 0l0 6.234375l6.234375 0l0 2.625l-6.234375 0l0 6.28125l-2.65625 0z" fill-rule="nonzero"/><path fill="#000000" fill-opacity="0.0" d="m187.19948 58.034122l-62.614174 68.18898" fill-rule="evenodd"/><path stroke="#000000" stroke-width="2.0" stroke-linejoin="round" stroke-linecap="butt" d="m187.19948 58.034122l-62.614174 68.18898" fill-rule="evenodd"/><path fill="#000000" fill-opacity="0.0" d="m78.95276 123.93438l83.842514 0l0 69.48032l-83.842514 0z" fill-rule="evenodd"/><path fill="#000000" d="m106.28421 148.45813l0.921875 -2.859375q3.203125 1.125 4.65625 1.953125q-0.375 -3.65625 -0.390625 -5.03125l2.921875 0q-0.0625 2.0 -0.46875 5.015625q2.078125 -1.046875 4.765625 -1.9375l0.921875 2.859375q-2.5625 0.84375 -5.015625 1.125q1.234375 1.078125 3.46875 3.8125l-2.421875 1.71875q-1.171875 -1.59375 -2.765625 -4.328125q-1.5 2.84375 -2.625 4.328125l-2.375 -1.71875q2.328125 -2.875 3.34375 -3.8125q-2.609375 -0.5 -4.9375 -1.125z" fill-rule="nonzero"/><path fill="#000000" fill-opacity="0.0" d="m94.40682 183.25197l643.9685 0l0 42.015747l-643.9685 0z" fill-rule="evenodd"/><path fill="#000000" fill-opacity="0.0" d="m96.64304 175.4252l-44.724407 57.007874" fill-rule="evenodd"/><path stroke="#000000" stroke-width="2.0" stroke-linejoin="round" stroke-linecap="butt" d="m96.64304 175.4252l-44.724407 57.007874" fill-rule="evenodd"/><path fill="#000000" fill-opacity="0.0" d="m25.435696 229.08923l83.842514 0l0 54.92914l-83.842514 0z" fill-rule="evenodd"/><path fill="#000000" d="m35.67007 260.70236l2.578125 -0.34375q0.4375 2.203125 1.5 3.171875q1.078125 0.953125 2.609375 0.953125q1.8125 0 3.0625 -1.25q1.265625 -1.265625 1.265625 -3.125q0 -1.78125 -1.171875 -2.921875q-1.15625 -1.15625 -2.9375 -1.15625q-0.734375 0 -1.828125 0.28125l0.296875 -2.265625q0.25 0.03125 0.40625 0.03125q1.640625 0 2.953125 -0.859375q1.328125 -0.859375 1.328125 -2.65625q0 -1.40625 -0.96875 -2.328125q-0.953125 -0.9375 -2.46875 -0.9375q-1.5 0 -2.5 0.953125q-1.0 0.9375 -1.296875 2.828125l-2.578125 -0.46875q0.484375 -2.59375 2.15625 -4.015625q1.671875 -1.421875 4.15625 -1.421875q1.71875 0 3.171875 0.734375q1.453125 0.734375 2.21875 2.015625q0.765625 1.265625 0.765625 2.703125q0 1.359375 -0.734375 2.484375q-0.734375 1.109375 -2.15625 1.765625q1.859375 0.4375 2.890625 1.796875q1.03125 1.34375 1.03125 3.375q0 2.75 -2.015625 4.671875q-2.0 1.90625 -5.0625 1.90625q-2.765625 0 -4.59375 -1.640625q-1.828125 -1.65625 -2.078125 -4.28125z" fill-rule="nonzero"/><path fill="#000000" fill-opacity="0.0" d="m131.29921 172.07086l41.70079 60.72441" fill-rule="evenodd"/><path stroke="#000000" stroke-width="2.0" stroke-linejoin="round" stroke-linecap="butt" d="m131.29921 172.07086l41.70079 60.72441" fill-rule="evenodd"/><path fill="#000000" fill-opacity="0.0" d="m159.94226 229.4357l83.842514 0l0 54.92914l-83.842514 0z" fill-rule="evenodd"/><path fill="#000000" d="m178.42664 266.5957l0 -5.03125l-9.109375 0l0 -2.359375l9.578125 -13.60939l2.109375 0l0 13.60939l2.828125 0l0 2.359375l-2.828125 0l0 5.03125l-2.578125 0zm0 -7.390625l0 -9.468765l-6.578125 9.468765l6.578125 0z" fill-rule="nonzero"/><path fill="#000000" fill-opacity="0.0" d="m330.3071 164.2441l535.5276 0l0 42.015747l-535.5276 0z" fill-rule="evenodd"/><path fill="#000000" fill-opacity="0.0" d="m305.71127 179.89764l-38.015747 58.141724" fill-rule="evenodd"/><path stroke="#000000" stroke-width="2.0" stroke-linejoin="round" stroke-linecap="butt" d="m305.71127 179.89764l-38.015747 58.141724" fill-rule="evenodd"/><path fill="#000000" fill-opacity="0.0" d="m321.3622 177.4252l49.259827 57.606293" fill-rule="evenodd"/><path stroke="#000000" stroke-width="2.0" stroke-linejoin="round" stroke-linecap="butt" d="m321.3622 177.4252l49.259827 57.606293" fill-rule="evenodd"/><path fill="#000000" fill-opacity="0.0" d="m239.3202 230.90027l83.842514 0l0 54.92914l-83.842514 0z" fill-rule="evenodd"/><path fill="#000000" d="m259.2421 268.06027l-2.578125 0l0 -16.42189q-0.92189026 0.890625 -2.4375153 1.78125q-1.515625 0.875 -2.71875 1.328125l0 -2.5q2.171875 -1.015625 3.78125 -2.453125q1.6250153 -1.453125 2.2968903 -2.8125l1.65625 0l0 21.07814z" fill-rule="nonzero"/><path fill="#000000" fill-opacity="0.0" d="m361.68765 232.79527l83.84253 0l0 69.48033l-83.84253 0z" fill-rule="evenodd"/><path fill="#000000" d="m380.13284 257.31903l0.921875 -2.8593903q3.203125 1.125 4.65625 1.9531403q-0.375 -3.6562653 -0.390625 -5.0312653l2.921875 0q-0.0625 2.0 -0.46875 5.0156403q2.078125 -1.0468903 4.765625 -1.9375153l0.921875 2.8593903q-2.5625 0.84375 -5.015625 1.125q1.234375 1.078125 3.46875 3.8125l-2.421875 1.71875q-1.171875 -1.59375 -2.765625 -4.328125q-1.5 2.84375 -2.625 4.328125l-2.375 -1.71875q2.328125 -2.875 3.34375 -3.8125q-2.609375 -0.5 -4.9375 -1.125z" fill-rule="nonzero"/><path fill="#000000" fill-opacity="0.0" d="m237.51181 281.63516l86.078735 0l0 42.015747l-86.078735 0z" fill-rule="evenodd"/><path fill="#000000" fill-opacity="0.0" d="m375.59842 282.68503l-36.59842 53.322845" fill-rule="evenodd"/><path stroke="#000000" stroke-width="2.0" stroke-linejoin="round" stroke-linecap="butt" d="m375.59842 282.68503l-36.59842 53.322845" fill-rule="evenodd"/><path fill="#000000" fill-opacity="0.0" d="m304.07086 336.35434l83.84253 0l0 54.92914l-83.84253 0z" fill-rule="evenodd"/><path fill="#000000" d="m327.8365 371.02997l0 2.484375l-13.875 0q-0.03125 -0.9375 0.296875 -1.796875q0.53125 -1.40625 1.6875 -2.78125q1.171875 -1.375 3.390625 -3.1875q3.421875 -2.796875 4.625 -4.4375q1.203125 -1.640625 1.203125 -3.109375q0 -1.53125 -1.109375 -2.578125q-1.09375 -1.0625 -2.84375 -1.0625q-1.875 0 -3.0 1.125q-1.109375 1.109375 -1.109375 3.09375l-2.65625 -0.265625q0.265625 -2.96875 2.046875 -4.515625q1.78125 -1.5625 4.765625 -1.5625q3.03125 0 4.78125 1.671875q1.765625 1.671875 1.765625 4.15625q0 1.265625 -0.515625 2.484375q-0.515625 1.203125 -1.71875 2.5625q-1.1875 1.34375 -3.96875 3.6875q-2.3125 1.953125 -2.984375 2.65625q-0.65625 0.6875 -1.078125 1.375l10.296875 0z" fill-rule="nonzero"/><path fill="#000000" fill-opacity="0.0" d="m403.8294 279.33597l41.700775 60.724396" fill-rule="evenodd"/><path stroke="#000000" stroke-width="2.0" stroke-linejoin="round" stroke-linecap="butt" d="m403.8294 279.33597l41.700775 60.724396" fill-rule="evenodd"/><path fill="#000000" fill-opacity="0.0" d="m425.75854 336.35434l83.8425 0l0 54.92914l-83.8425 0z" fill-rule="evenodd"/><path fill="#000000" d="m445.68042 373.51434l-2.578125 0l0 -16.421875q-0.921875 0.890625 -2.4375 1.78125q-1.515625 0.875 -2.71875 1.328125l0 -2.5q2.171875 -1.015625 3.78125 -2.453125q1.625 -1.453125 2.296875 -2.8125l1.65625 0l0 21.078125zm6.607788 -10.359375q0 -3.71875 0.765625 -5.984375q0.765625 -2.265625 2.265625 -3.5q1.515625 -1.234375 3.8125 -1.234375q1.6875 0 2.953125 0.6875q1.28125 0.671875 2.109375 1.953125q0.84375 1.28125 1.3125 3.125q0.46875 1.84375 0.46875 4.953125q0 3.703125 -0.765625 5.96875q-0.75 2.265625 -2.265625 3.515625q-1.5 1.234375 -3.8125 1.234375q-3.03125 0 -4.765625 -2.171875q-2.078125 -2.625 -2.078125 -8.546875zm2.640625 0q0 5.171875 1.203125 6.890625q1.21875 1.703125 3.0 1.703125q1.78125 0 2.984375 -1.71875q1.21875 -1.71875 1.21875 -6.875q0 -5.171875 -1.21875 -6.875q-1.203125 -1.71875 -3.015625 -1.71875q-1.765625 0 -2.828125 1.515625q-1.34375 1.921875 -1.34375 7.078125z" fill-rule="nonzero"/></g></svg>