<svg version="1.1" viewBox="0.0 0.0 338.4225721784777 409.2992125984252" fill="none" stroke="none" stroke-linecap="square" stroke-miterlimit="10" xmlns:xlink="http://www.w3.org/1999/xlink" xmlns="http://www.w3.org/2000/svg"><clipPath id="p.0"><path d="m0 0l338.42258 0l0 409.29922l-338.42258 0l0 -409.29922z" clip-rule="nonzero"/></clipPath><g clip-path="url(#p.0)"><path fill="#000000" fill-opacity="0.0" d="m0 0l338.42258 0l0 409.29922l-338.42258 0z" fill-rule="evenodd"/><path fill="#000000" fill-opacity="0.0" d="m114.3937 0l97.57481 0l0 87.27559l-97.57481 0z" fill-rule="evenodd"/><path fill="#000000" d="m137.42496 56.275623l0 -10.984375l-10.906258 0l0 -4.59375l10.906258 0l0 -10.921875l4.640625 0l0 10.921875l10.921875 0l0 4.59375l-10.921875 0l0 10.984375l-4.640625 0z" fill-rule="nonzero"/><path fill="#000000" fill-opacity="0.0" d="m155.88715 65.04462l75.1496 87.46457" fill-rule="evenodd"/><path stroke="#000000" stroke-width="4.0" stroke-linejoin="round" stroke-linecap="butt" d="m155.88715 65.04462l75.1496 87.46457" fill-rule="evenodd"/><path fill="#000000" fill-opacity="0.0" d="m224.28609 140.19685l97.574814 0l0 87.27559l-97.574814 0z" fill-rule="evenodd"/><path fill="#000000" d="m235.03609 170.22247l1.265625 -3.875q4.34375 1.53125 6.3125 2.640625q-0.515625 -4.9375 -0.546875 -6.796875l3.96875 0q-0.09375 2.703125 -0.640625 6.78125q2.828125 -1.421875 6.453125 -2.625l1.265625 3.875q-3.46875 1.15625 -6.8125 1.53125q1.671875 1.453125 4.703125 5.171875l-3.28125 2.328125q-1.578125 -2.171875 -3.75 -5.890625q-2.015625 3.859375 -3.546875 5.890625l-3.234375 -2.328125q3.171875 -3.90625 4.546875 -5.171875q-3.53125 -0.6875 -6.703125 -1.53125z" fill-rule="nonzero"/><path fill="#000000" fill-opacity="0.0" d="m231.03674 190.5643l-49.354324 50.551178" fill-rule="evenodd"/><path stroke="#000000" stroke-width="4.0" stroke-linejoin="round" stroke-linecap="butt" d="m231.03674 190.5643l-49.354324 50.551178" fill-rule="evenodd"/><path fill="#000000" fill-opacity="0.0" d="m66.75853 335.2756l54.362206 0l0 66.2677l-54.362206 0z" fill-rule="evenodd"/><path fill="#000000" d="m77.38353 374.09872l3.390625 -0.453125q0.59375 2.875 2.0 4.15625q1.40625 1.265625 3.421875 1.265625q2.390625 0 4.046875 -1.65625q1.65625 -1.65625 1.65625 -4.109375q0 -2.34375 -1.53125 -3.859375q-1.53125 -1.53125 -3.890625 -1.53125q-0.953125 0 -2.390625 0.390625l0.375 -2.984375q0.34375 0.03125 0.546875 0.03125q2.171875 0 3.90625 -1.125q1.734375 -1.140625 1.734375 -3.5q0 -1.859375 -1.265625 -3.078125q-1.265625 -1.234375 -3.265625 -1.234375q-1.984375 0 -3.3125 1.25q-1.3125 1.234375 -1.6875 3.734375l-3.390625 -0.609375q0.609375 -3.421875 2.8125 -5.296875q2.21875 -1.875 5.5 -1.875q2.265625 0 4.171875 0.96875q1.90625 0.96875 2.921875 2.65625q1.015625 1.671875 1.015625 3.5625q0 1.796875 -0.96875 3.265625q-0.96875 1.46875 -2.84375 2.34375q2.453125 0.5625 3.8125 2.34375q1.359375 1.78125 1.359375 4.46875q0 3.625 -2.65625 6.140625q-2.640625 2.515625 -6.671875 2.515625q-3.640625 0 -6.046875 -2.15625q-2.40625 -2.171875 -2.75 -5.625z" fill-rule="nonzero"/><path fill="#000000" fill-opacity="0.0" d="m309.5328 242.24147l-51.590546 -52.72441" fill-rule="evenodd"/><path stroke="#000000" stroke-width="4.0" stroke-linejoin="round" stroke-linecap="butt" d="m309.5328 242.24147l-51.590546 -52.72441" fill-rule="evenodd"/><path fill="#000000" fill-opacity="0.0" d="m298.0866 237.7559l54.362213 0l0 66.267715l-54.362213 0z" fill-rule="evenodd"/><path fill="#000000" d="m326.53973 280.6103l0 3.265625l-18.28125 0q-0.046875 -1.234375 0.390625 -2.359375q0.703125 -1.875 2.234375 -3.6875q1.546875 -1.8125 4.453125 -4.1875q4.515625 -3.703125 6.09375 -5.859375q1.59375 -2.15625 1.59375 -4.078125q0 -2.03125 -1.453125 -3.40625q-1.4375 -1.390625 -3.765625 -1.390625q-2.453125 0 -3.921875 1.46875q-1.46875 1.46875 -1.5 4.078125l-3.484375 -0.359375q0.359375 -3.90625 2.703125 -5.953125q2.34375 -2.046875 6.28125 -2.046875q3.984375 0 6.296875 2.203125q2.328125 2.203125 2.328125 5.46875q0 1.671875 -0.6875 3.28125q-0.671875 1.59375 -2.25 3.375q-1.578125 1.765625 -5.234375 4.859375q-3.0625 2.578125 -3.9375 3.5q-0.859375 0.90625 -1.421875 1.828125l13.5625 0z" fill-rule="nonzero"/><path fill="#000000" fill-opacity="0.0" d="m14.574803 65.04462l97.5748 0l0 42.015747l-97.5748 0z" fill-rule="evenodd"/><path fill="#000000" fill-opacity="0.0" d="m121.120735 65.04462l-86.362206 90.834656" fill-rule="evenodd"/><path stroke="#000000" stroke-width="4.0" stroke-linejoin="round" stroke-linecap="butt" d="m121.120735 65.04462l-86.362206 90.834656" fill-rule="evenodd"/><path fill="#000000" fill-opacity="0.0" d="m0 150.70079l86.362206 0l0 66.267715l-86.362206 0z" fill-rule="evenodd"/><path fill="#000000" d="m21.5 196.82079l0 -6.625l-12.015625 0l0 -3.109375l12.640625 -17.9375l2.765625 0l0 17.9375l3.734375 0l0 3.109375l-3.734375 0l0 6.625l-3.390625 0zm0 -9.734375l0 -12.484375l-8.671875 12.484375l8.671875 0z" fill-rule="nonzero"/><path fill="#000000" fill-opacity="0.0" d="m144.67455 224.9685l97.5748 0l0 87.27557l-97.5748 0z" fill-rule="evenodd"/><path fill="#000000" d="m167.7058 281.24414l0 -10.984375l-10.90625 0l0 -4.59375l10.90625 0l0 -10.92189l4.640625 0l0 10.92189l10.921875 0l0 4.59375l-10.921875 0l0 10.984375l-4.640625 0z" fill-rule="nonzero"/><path fill="#000000" fill-opacity="0.0" d="m152.67455 287.31235l-49.354332 50.551178" fill-rule="evenodd"/><path stroke="#000000" stroke-width="4.0" stroke-linejoin="round" stroke-linecap="butt" d="m152.67455 287.31235l-49.354332 50.551178" fill-rule="evenodd"/><path fill="#000000" fill-opacity="0.0" d="m225.41995 345.41995l-40.503937 -58.11023" fill-rule="evenodd"/><path stroke="#000000" stroke-width="4.0" stroke-linejoin="round" stroke-linecap="butt" d="m225.41995 345.41995l-40.503937 -58.11023" fill-rule="evenodd"/><path fill="#000000" fill-opacity="0.0" d="m219.58005 335.2756l54.362213 0l0 66.2677l-54.362213 0z" fill-rule="evenodd"/><path fill="#000000" d="m242.9863 381.3956l-3.40625 0l0 -21.65625q-1.21875 1.171875 -3.21875 2.34375q-1.984375 1.171875 -3.578125 1.765625l0 -3.296875q2.859375 -1.328125 4.984375 -3.234375q2.140625 -1.90625 3.03125 -3.703125l2.1875 0l0 27.78125z" fill-rule="nonzero"/></g></svg>