<svg version="1.1" viewBox="0.0 0.0 339.4514435695538 100.0" fill="none" stroke="none" stroke-linecap="square" stroke-miterlimit="10" xmlns:xlink="http://www.w3.org/1999/xlink" xmlns="http://www.w3.org/2000/svg"><clipPath id="p.0"><path d="m0 0l339.45145 0l0 100.0l-339.45145 0l0 -100.0z" clip-rule="nonzero"/></clipPath><g clip-path="url(#p.0)"><path fill="#000000" fill-opacity="0.0" d="m0 0l339.45145 0l0 100.0l-339.45145 0z" fill-rule="evenodd"/><path fill="#000000" fill-opacity="0.0" d="m14.574803 65.04462l97.5748 0l0 42.015747l-97.5748 0z" fill-rule="evenodd"/><path fill="#000000" fill-opacity="0.0" d="m105.95276 6.7165356l71.27559 0l0 66.267715l-71.27559 0z" fill-rule="evenodd"/><path fill="#000000" d="m129.35901 52.836533l-3.40625 0l0 -21.656248q-1.21875 1.1718731 -3.21875 2.343748q-1.984375 1.171875 -3.578125 1.765625l0 -3.296873q2.859375 -1.328125 4.984375 -3.234375q2.140625 -1.90625 3.03125 -3.703125l2.1875 0l0 27.781248zm26.545639 -3.265625l0 3.265625l-18.28125 0q-0.046875 -1.234375 0.390625 -2.359375q0.703125 -1.875 2.234375 -3.6875q1.546875 -1.8125 4.453125 -4.1875q4.515625 -3.703125 6.09375 -5.859375q1.59375 -2.15625 1.59375 -4.078125q0 -2.031248 -1.453125 -3.406248q-1.4375 -1.390625 -3.765625 -1.390625q-2.453125 0 -3.921875 1.46875q-1.46875 1.46875 -1.5 4.078123l-3.484375 -0.359375q0.359375 -3.906248 2.703125 -5.953123q2.34375 -2.046875 6.28125 -2.046875q3.984375 0 6.296875 2.203125q2.328125 2.203125 2.328125 5.468748q0 1.671875 -0.6875 3.28125q-0.671875 1.59375 -2.25 3.375q-1.578125 1.765625 -5.234375 4.859375q-3.0625 2.578125 -3.9375 3.5q-0.859375 0.90625 -1.421875 1.828125l13.5625 0z" fill-rule="nonzero"/></g></svg>