<?xml version="1.0" encoding="UTF-8" standalone="no"?>
<svg
   version="1.1"
   viewBox="0 0 338.63517 217.25195"
   fill="none"
   stroke="none"
   stroke-linecap="square"
   stroke-miterlimit="10"
   id="svg127"
   sodipodi:docname="math-syntax-3.svg"
   width="338.63516"
   height="217.25197"
   inkscape:version="1.1.1 (c3084ef, 2021-09-22)"
   xmlns:inkscape="http://www.inkscape.org/namespaces/inkscape"
   xmlns:sodipodi="http://sodipodi.sourceforge.net/DTD/sodipodi-0.dtd"
   xmlns="http://www.w3.org/2000/svg"
   xmlns:svg="http://www.w3.org/2000/svg">
  <defs
     id="defs131" />
  <sodipodi:namedview
     id="namedview129"
     pagecolor="#ffffff"
     bordercolor="#666666"
     borderopacity="1.0"
     inkscape:pageshadow="2"
     inkscape:pageopacity="0.0"
     inkscape:pagecheckerboard="0"
     showgrid="false"
     inkscape:zoom="1.6094016"
     inkscape:cx="169.31759"
     inkscape:cy="151.29847"
     inkscape:window-width="1312"
     inkscape:window-height="847"
     inkscape:window-x="1940"
     inkscape:window-y="179"
     inkscape:window-maximized="0"
     inkscape:current-layer="svg127"
     height="217.25197px" />
  <clipPath
     id="p.0">
    <path
       d="M 0,0 H 338.63516 V 302.25198 H 0 Z"
       clip-rule="nonzero"
       id="path98" />
  </clipPath>
  <g
     clip-path="url(#p.0)"
     id="g125">
    <path
       fill="#000000"
       fill-opacity="0"
       d="M 0,0 H 338.63516 V 302.25198 H 0 Z"
       fill-rule="evenodd"
       id="path101" />
    <path
       fill="#000000"
       fill-opacity="0"
       d="m 114.3937,0 h 97.57481 V 87.27559 H 114.3937 Z"
       fill-rule="evenodd"
       id="path103" />
    <path
       fill="#000000"
       d="M 137.42496,56.275623 V 45.291248 H 126.5187 v -4.59375 h 10.90626 V 29.775623 h 4.64062 v 10.921875 h 10.92188 v 4.59375 h -10.92188 v 10.984375 z"
       fill-rule="nonzero"
       id="path105" />
    <path
       fill="#000000"
       fill-opacity="0"
       d="m 155.88715,65.04462 75.1496,87.46457"
       fill-rule="evenodd"
       id="path107" />
    <path
       stroke="#000000"
       stroke-width="4"
       stroke-linejoin="round"
       stroke-linecap="butt"
       d="m 155.88715,65.04462 75.1496,87.46457"
       fill-rule="evenodd"
       id="path109" />
    <path
       fill="#000000"
       fill-opacity="0"
       d="M 14.574803,65.04462 H 112.1496 v 42.01575 H 14.574803 Z"
       fill-rule="evenodd"
       id="path111" />
    <path
       fill="#000000"
       fill-opacity="0"
       d="M 121.12073,65.04462 34.758529,155.87928"
       fill-rule="evenodd"
       id="path113" />
    <path
       stroke="#000000"
       stroke-width="4"
       stroke-linejoin="round"
       stroke-linecap="butt"
       d="M 121.12073,65.04462 34.758529,155.87928"
       fill-rule="evenodd"
       id="path115" />
    <path
       fill="#000000"
       fill-opacity="0"
       d="M 0,150.70079 H 86.362206 V 216.9685 H 0 Z"
       fill-rule="evenodd"
       id="path117" />
    <path
       fill="#000000"
       d="m 21.5,196.82079 v -6.625 H 9.484375 v -3.10938 L 22.125,169.14891 h 2.765625 v 17.9375 H 28.625 v 3.10938 h -3.734375 v 6.625 z m 0,-9.73438 v -12.48437 l -8.671875,12.48437 z"
       fill-rule="nonzero"
       id="path119" />
    <path
       fill="#000000"
       fill-opacity="0"
       d="m 222.64568,150.70079 h 54.3622 v 66.26771 h -54.3622 z"
       fill-rule="evenodd"
       id="path121" />
    <path
       fill="#000000"
       d="m 238.4738,181.82079 q -2.10938,-0.78125 -3.125,-2.21875 -1.01563,-1.4375 -1.01563,-3.4375 0,-3.01563 2.15625,-5.0625 2.17188,-2.0625 5.78125,-2.0625 3.625,0 5.82813,2.10937 2.21875,2.09375 2.21875,5.10938 0,1.9375 -1.01563,3.35937 -1.01562,1.42188 -3.0625,2.20313 2.54688,0.82812 3.875,2.6875 1.32813,1.84375 1.32813,4.40625 0,3.54687 -2.51563,5.96875 -2.5,2.40625 -6.59375,2.40625 -4.09375,0 -6.60937,-2.42188 -2.51563,-2.42187 -2.51563,-6.04687 0,-2.70313 1.35938,-4.51563 1.375,-1.82812 3.90625,-2.48437 z m -0.67188,-5.76563 q 0,1.96875 1.26563,3.21875 1.26562,1.23438 3.28125,1.23438 1.96875,0 3.21875,-1.23438 1.25,-1.23437 1.25,-3.03125 0,-1.85937 -1.29688,-3.125 -1.28125,-1.28125 -3.20312,-1.28125 -1.95313,0 -3.23438,1.25 -1.28125,1.23438 -1.28125,2.96875 z m -1.09375,12.78125 q 0,1.45313 0.6875,2.8125 0.6875,1.35938 2.04688,2.10938 1.35937,0.73437 2.92187,0.73437 2.4375,0 4.01563,-1.5625 1.59375,-1.5625 1.59375,-3.98437 0,-2.45313 -1.64063,-4.04688 -1.625,-1.60937 -4.07812,-1.60937 -2.40625,0 -3.98438,1.59375 -1.5625,1.57812 -1.5625,3.95312 z"
       fill-rule="nonzero"
       id="path123" />
  </g>
</svg>
