<svg version="1.1" viewBox="0.0 0.0 338.63517060367457 302.251968503937" fill="none" stroke="none" stroke-linecap="square" stroke-miterlimit="10" xmlns:xlink="http://www.w3.org/1999/xlink" xmlns="http://www.w3.org/2000/svg"><clipPath id="p.0"><path d="m0 0l338.63516 0l0 302.25198l-338.63516 0l0 -302.25198z" clip-rule="nonzero"/></clipPath><g clip-path="url(#p.0)"><path fill="#000000" fill-opacity="0.0" d="m0 0l338.63516 0l0 302.25198l-338.63516 0z" fill-rule="evenodd"/><path fill="#000000" fill-opacity="0.0" d="m114.3937 0l97.57481 0l0 87.27559l-97.57481 0z" fill-rule="evenodd"/><path fill="#000000" d="m137.42496 56.275623l0 -10.984375l-10.906258 0l0 -4.59375l10.906258 0l0 -10.921875l4.640625 0l0 10.921875l10.921875 0l0 4.59375l-10.921875 0l0 10.984375l-4.640625 0z" fill-rule="nonzero"/><path fill="#000000" fill-opacity="0.0" d="m155.88715 65.04462l75.1496 87.46457" fill-rule="evenodd"/><path stroke="#000000" stroke-width="4.0" stroke-linejoin="round" stroke-linecap="butt" d="m155.88715 65.04462l75.1496 87.46457" fill-rule="evenodd"/><path fill="#000000" fill-opacity="0.0" d="m224.28609 140.19685l97.574814 0l0 87.27559l-97.574814 0z" fill-rule="evenodd"/><path fill="#000000" d="m235.03609 170.22247l1.265625 -3.875q4.34375 1.53125 6.3125 2.640625q-0.515625 -4.9375 -0.546875 -6.796875l3.96875 0q-0.09375 2.703125 -0.640625 6.78125q2.828125 -1.421875 6.453125 -2.625l1.265625 3.875q-3.46875 1.15625 -6.8125 1.53125q1.671875 1.453125 4.703125 5.171875l-3.28125 2.328125q-1.578125 -2.171875 -3.75 -5.890625q-2.015625 3.859375 -3.546875 5.890625l-3.234375 -2.328125q3.171875 -3.90625 4.546875 -5.171875q-3.53125 -0.6875 -6.703125 -1.53125z" fill-rule="nonzero"/><path fill="#000000" fill-opacity="0.0" d="m231.03674 190.5643l-49.354324 50.551178" fill-rule="evenodd"/><path stroke="#000000" stroke-width="4.0" stroke-linejoin="round" stroke-linecap="butt" d="m231.03674 190.5643l-49.354324 50.551178" fill-rule="evenodd"/><path fill="#000000" fill-opacity="0.0" d="m309.5328 242.24147l-51.590546 -52.72441" fill-rule="evenodd"/><path stroke="#000000" stroke-width="4.0" stroke-linejoin="round" stroke-linecap="butt" d="m309.5328 242.24147l-51.590546 -52.72441" fill-rule="evenodd"/><path fill="#000000" fill-opacity="0.0" d="m298.0866 237.7559l54.362213 0l0 66.267715l-54.362213 0z" fill-rule="evenodd"/><path fill="#000000" d="m326.53973 280.6103l0 3.265625l-18.28125 0q-0.046875 -1.234375 0.390625 -2.359375q0.703125 -1.875 2.234375 -3.6875q1.546875 -1.8125 4.453125 -4.1875q4.515625 -3.703125 6.09375 -5.859375q1.59375 -2.15625 1.59375 -4.078125q0 -2.03125 -1.453125 -3.40625q-1.4375 -1.390625 -3.765625 -1.390625q-2.453125 0 -3.921875 1.46875q-1.46875 1.46875 -1.5 4.078125l-3.484375 -0.359375q0.359375 -3.90625 2.703125 -5.953125q2.34375 -2.046875 6.28125 -2.046875q3.984375 0 6.296875 2.203125q2.328125 2.203125 2.328125 5.46875q0 1.671875 -0.6875 3.28125q-0.671875 1.59375 -2.25 3.375q-1.578125 1.765625 -5.234375 4.859375q-3.0625 2.578125 -3.9375 3.5q-0.859375 0.90625 -1.421875 1.828125l13.5625 0z" fill-rule="nonzero"/><path fill="#000000" fill-opacity="0.0" d="m14.574803 65.04462l97.5748 0l0 42.015747l-97.5748 0z" fill-rule="evenodd"/><path fill="#000000" fill-opacity="0.0" d="m121.120735 65.04462l-86.362206 90.834656" fill-rule="evenodd"/><path stroke="#000000" stroke-width="4.0" stroke-linejoin="round" stroke-linecap="butt" d="m121.120735 65.04462l-86.362206 90.834656" fill-rule="evenodd"/><path fill="#000000" fill-opacity="0.0" d="m0 150.70079l86.362206 0l0 66.267715l-86.362206 0z" fill-rule="evenodd"/><path fill="#000000" d="m21.5 196.82079l0 -6.625l-12.015625 0l0 -3.109375l12.640625 -17.9375l2.765625 0l0 17.9375l3.734375 0l0 3.109375l-3.734375 0l0 6.625l-3.390625 0zm0 -9.734375l0 -12.484375l-8.671875 12.484375l8.671875 0z" fill-rule="nonzero"/><path fill="#000000" fill-opacity="0.0" d="m150.31233 237.7559l54.362213 0l0 66.267715l-54.362213 0z" fill-rule="evenodd"/><path fill="#000000" d="m171.81233 283.87592l0 -6.625l-12.015625 0l0 -3.109375l12.640625 -17.9375l2.765625 0l0 17.9375l3.734375 0l0 3.109375l-3.734375 0l0 6.625l-3.390625 0zm0 -9.734375l0 -12.484375l-8.671875 12.484375l8.671875 0z" fill-rule="nonzero"/></g></svg>