<?xml version="1.0" encoding="UTF-8" standalone="no"?>
<svg
   version="1.1"
   viewBox="0.0 0.0 274.45931758530185 196.4435695538058"
   fill="none"
   stroke="none"
   stroke-linecap="square"
   stroke-miterlimit="10"
   id="svg146"
   sodipodi:docname="multiple-trees.svg"
   inkscape:version="1.1.1 (c3084ef, 2021-09-22)"
   xmlns:inkscape="http://www.inkscape.org/namespaces/inkscape"
   xmlns:sodipodi="http://sodipodi.sourceforge.net/DTD/sodipodi-0.dtd"
   xmlns="http://www.w3.org/2000/svg"
   xmlns:svg="http://www.w3.org/2000/svg">
  <defs
     id="defs150">
    <rect
       x="-38.796922"
       y="35.518309"
       width="56.556076"
       height="51.364939"
       id="rect38470" />
    <rect
       x="-57.648947"
       y="69.670529"
       width="20.76455"
       height="31.693261"
       id="rect19131" />
    <rect
       x="-56.009641"
       y="80.052804"
       width="64.752609"
       height="98.358394"
       id="rect13779" />
    <rect
       x="-71.309835"
       y="69.397311"
       width="82.238546"
       height="81.418893"
       id="rect10465" />
    <rect
       x="-55.463205"
       y="63.659738"
       width="70.216964"
       height="74.042013"
       id="rect2487" />
    <rect
       x="-38.796921"
       y="35.518311"
       width="56.556076"
       height="51.364941"
       id="rect38470-2" />
    <rect
       x="-38.796921"
       y="35.518311"
       width="56.556076"
       height="51.364941"
       id="rect38470-2-8" />
    <rect
       x="-38.796921"
       y="35.518311"
       width="56.556076"
       height="51.364941"
       id="rect38470-2-8-4" />
  </defs>
  <sodipodi:namedview
     id="namedview148"
     pagecolor="#ffffff"
     bordercolor="#666666"
     borderopacity="1.0"
     inkscape:pageshadow="2"
     inkscape:pageopacity="0.0"
     inkscape:pagecheckerboard="0"
     showgrid="false"
     showguides="false"
     inkscape:zoom="3.6600842"
     inkscape:cx="98.085176"
     inkscape:cy="98.221785"
     inkscape:window-width="1601"
     inkscape:window-height="1089"
     inkscape:window-x="2312"
     inkscape:window-y="180"
     inkscape:window-maximized="0"
     inkscape:current-layer="svg146" />
  <clipPath
     id="p.0">
    <path
       d="m0 0l274.45932 0l0 196.44357l-274.45932 0l0 -196.44357z"
       clip-rule="nonzero"
       id="path9" />
  </clipPath>
  <g
     clip-path="url(#p.0)"
     id="g144">
    <path
       fill="#000000"
       fill-opacity="0.0"
       d="m0 0l274.45932 0l0 196.44357l-274.45932 0z"
       fill-rule="evenodd"
       id="path12" />
    <path
       fill="#000000"
       fill-opacity="0.0"
       d="m16.818897 64.2021l97.5748 0l0 42.015747l-97.5748 0z"
       fill-rule="evenodd"
       id="path14" />
    <path
       fill="#000000"
       fill-opacity="0.0"
       d="m49.947506 4.4724407l48.40945 0l0 35.55906l-48.40945 0z"
       fill-rule="evenodd"
       id="path16" />
    <path
       fill="#000000"
       d="m62.291256 24.725565l0 -2.609375l-2.609375 0l0 -1.09375l2.609375 0l0 -2.59375l1.09375 0l0 2.59375l2.6093788 0l0 1.09375l-2.6093788 0l0 2.609375l-1.09375 0z"
       fill-rule="nonzero"
       id="path18" />
    <path
       fill="#000000"
       fill-opacity="0.0"
       d="m72.96326 32.834644l17.133858 22.456696"
       fill-rule="evenodd"
       id="path20" />
    <path
       stroke="#000000"
       stroke-width="1.0"
       stroke-linejoin="round"
       stroke-linecap="butt"
       d="m72.96326 32.834644l17.133858 22.456696"
       fill-rule="evenodd"
       id="path22" />
    <path
       fill="#000000"
       fill-opacity="0.0"
       d="m86.154854 60.05512l32.850395 0l0 42.01575l-32.850395 0z"
       fill-rule="evenodd"
       id="path24" />
    <path
       fill="#000000"
       fill-opacity="0.0"
       d="m83.98688 51.062992l48.409454 0l0 35.559055l-48.409454 0z"
       fill-rule="evenodd"
       id="path26" />
    <path
       fill="#000000"
       d="m93.40875 65.06612l0.296875 -0.921875q1.03125 0.375 1.5 0.640625q-0.125 -1.1875 -0.125 -1.625l0.9375 0q-0.015625 0.640625 -0.140625 1.609375q0.65625 -0.328125 1.53125 -0.625l0.296875 0.921875q-0.828125 0.28125 -1.625 0.375q0.40625 0.34375 1.125 1.21875l-0.78125 0.5625q-0.375 -0.515625 -0.890625 -1.40625q-0.484375 0.921875 -0.84375 1.40625l-0.765625 -0.5625q0.75 -0.921875 1.078125 -1.21875q-0.84375 -0.171875 -1.59375 -0.375z"
       fill-rule="nonzero"
       id="path28" />
    <path
       fill="#000000"
       fill-opacity="0.0"
       d="m103.272964 73.11024l17.133858 18.803146"
       fill-rule="evenodd"
       id="path30" />
    <path
       stroke="#000000"
       stroke-width="1.0"
       stroke-linejoin="round"
       stroke-linecap="butt"
       d="m103.272964 73.11024l17.133858 18.803146"
       fill-rule="evenodd"
       id="path32" />
    <path
       fill="#000000"
       fill-opacity="0.0"
       d="m90.64567 72.685036l-16.0 19.65355"
       fill-rule="evenodd"
       id="path34" />
    <path
       stroke="#000000"
       stroke-width="1.0"
       stroke-linejoin="round"
       stroke-linecap="butt"
       d="m90.64567 72.685036l-16.0 19.65355"
       fill-rule="evenodd"
       id="path36" />
    <path
       fill="#000000"
       fill-opacity="0.0"
       d="m65.94751 94.291336l20.220467 0l0 42.015747l-20.220467 0z"
       fill-rule="evenodd"
       id="path38" />
    <path
       fill="#000000"
       fill-opacity="0.0"
       d="m58.440945 84.461945l48.40945 0l0 35.55905l-48.40945 0z"
       fill-rule="evenodd"
       id="path40" />
    <path
       fill="#000000"
       d="m67.86282 98.465065l0.296875 -0.921875q1.03125 0.375 1.5 0.640625q-0.125 -1.1875 -0.125 -1.625l0.9375 0q-0.015625 0.640625 -0.140625 1.609375q0.65625 -0.328125 1.53125 -0.625l0.296875 0.921875q-0.828125 0.28125 -1.625 0.375q0.40625 0.34375 1.125 1.21875l-0.78125 0.5625q-0.375 -0.515625 -0.890625 -1.40625q-0.484375 0.921875 -0.84375 1.40625l-0.765625 -0.5625q0.75 -0.921875 1.078125 -1.21875q-0.84375 -0.171875 -1.59375 -0.375z"
       fill-rule="nonzero"
       id="path42" />
    <path
       fill="#000000"
       fill-opacity="0.0"
       d="m30.461943 112.884514l48.409447 0l0 35.55906l-48.409447 0z"
       fill-rule="evenodd"
       id="path44" />
    <path
       fill="#000000"
       d="m46.165066 133.55951l0 1.125l-6.296875 0q-0.015625 -0.421875 0.140625 -0.8125q0.234375 -0.640625 0.765625 -1.265625q0.53125 -0.625 1.53125 -1.453125q1.5625 -1.265625 2.109375 -2.015625q0.546875 -0.75 0.546875 -1.4062424q0 -0.703125 -0.5 -1.171875q-0.5 -0.484375 -1.296875 -0.484375q-0.859375 0 -1.375 0.515625q-0.5 0.5 -0.5 1.390625l-1.203125 -0.109375q0.125 -1.359375 0.921875 -2.0625q0.8125 -0.703125 2.171875 -0.703125q1.375 0 2.171875 0.765625q0.8125 0.75 0.8125 1.875q0 0.5781174 -0.234375 1.1406174q-0.234375 0.546875 -0.78125 1.15625q-0.546875 0.609375 -1.8125 1.671875q-1.046875 0.890625 -1.359375 1.21875q-0.296875 0.3125 -0.484375 0.625l4.671875 0z"
       fill-rule="nonzero"
       id="path46" />
    <path
       fill="#000000"
       fill-opacity="0.0"
       d="m65.94751 103.55905l-16.000004 19.65355"
       fill-rule="evenodd"
       id="path48" />
    <path
       stroke="#000000"
       stroke-width="1.0"
       stroke-linejoin="round"
       stroke-linecap="butt"
       d="m65.94751 103.55905l-16.000004 19.65355"
       fill-rule="evenodd"
       id="path50" />
    <path
       fill="#000000"
       fill-opacity="0.0"
       d="m75.84777 112.884514l48.409447 0l0 35.55906l-48.409447 0z"
       fill-rule="evenodd"
       id="path52" />
    <path
       fill="#000000"
       d="m85.394646 132.18451l1.234375 -0.109375q0.140625 0.90625 0.640625 1.359375q0.5 0.453125 1.203125 0.453125q0.84375 0 1.421875 -0.640625q0.59375 -0.640625 0.59375 -1.6875q0 -1.0 -0.5625 -1.578125q-0.5625 -0.59375 -1.484375 -0.59375q-0.5625 0 -1.015625 0.265625q-0.453125 0.25 -0.71875 0.671875l-1.09375 -0.15625l0.921875 -4.8906174l4.75 0l0 1.109375l-3.8125 0l-0.515625 2.5624924q0.859375 -0.59375 1.796875 -0.59375q1.25 0 2.109375 0.875q0.859375 0.859375 0.859375 2.21875q0 1.296875 -0.75 2.234375q-0.921875 1.15625 -2.5 1.15625q-1.3125 0 -2.140625 -0.71875q-0.8125 -0.734375 -0.9375 -1.9375z"
       fill-rule="nonzero"
       id="path54" />
    <path
       fill="#000000"
       d="m 47.517832,181.49246 1.234375,-0.10938 q 0.140625,0.90625 0.640625,1.35938 0.5,0.45312 1.203125,0.45312 0.84375,0 1.421875,-0.64062 0.593748,-0.64063 0.593748,-1.6875 0,-1 -0.562498,-1.57813 -0.5625,-0.59375 -1.484375,-0.59375 -0.5625,0 -1.015625,0.26563 -0.453125,0.25 -0.71875,0.67187 l -1.09375,-0.15625 0.921875,-4.89061 h 4.750003 v 1.10937 h -3.812503 l -0.515625,2.56249 q 0.859375,-0.59375 1.796875,-0.59375 1.25,0 2.109373,0.875 0.85938,0.85938 0.85938,2.21875 0,1.29688 -0.75,2.23438 -0.921878,1.15625 -2.500003,1.15625 -1.3125,0 -2.140625,-0.71875 -0.8125,-0.73438 -0.9375,-1.9375 z"
       fill-rule="nonzero"
       id="path54-9" />
    <path
       fill="#000000"
       fill-opacity="0.0"
       d="m72.96326 103.98425l11.212593 18.362206"
       fill-rule="evenodd"
       id="path56" />
    <path
       stroke="#000000"
       stroke-width="1.0"
       stroke-linejoin="round"
       stroke-linecap="butt"
       d="m72.96326 103.98425l11.212593 18.362206"
       fill-rule="evenodd"
       id="path58" />
    <path
       fill="#000000"
       fill-opacity="0.0"
       d="m114.42782 84.461945l48.409447 0l0 35.55905l-48.409447 0z"
       fill-rule="evenodd"
       id="path60" />
    <path
       fill="#000000"
       d="m123.99032 103.746315l1.171875 -0.15625q0.203125 1.0 0.6875 1.4375q0.484375 0.4375 1.171875 0.4375q0.828125 0 1.3906326 -0.578125q0.578125 -0.578125 0.578125 -1.421875q0 -0.796875 -0.53125 -1.3125q-0.5156326 -0.53125 -1.3281326 -0.53125q-0.34375 0 -0.828125 0.125l0.125 -1.03125q0.125 0.015625 0.1875 0.015625q0.75 0 1.34375 -0.390625q0.6093826 -0.390625 0.6093826 -1.203125q0 -0.640625 -0.4375 -1.0625q-0.43750763 -0.421875 -1.1250076 -0.421875q-0.6875 0 -1.140625 0.4375q-0.453125 0.421875 -0.59375 1.28125l-1.171875 -0.21875q0.21875 -1.171875 0.984375 -1.8125q0.765625 -0.65625 1.890625 -0.65625q0.78125 0 1.4375076 0.34375q0.65625 0.328125 1.0 0.90625q0.359375 0.578125 0.359375 1.234375q0 0.609375 -0.34375 1.125q-0.328125 0.5 -0.96875 0.796875q0.84375 0.203125 1.3125 0.828125q0.46875 0.609375 0.46875 1.53125q0 1.25 -0.921875 2.125q-0.90625 0.859375 -2.2968826 0.859375q-1.25 0 -2.09375 -0.75q-0.828125 -0.75 -0.9375 -1.9375z"
       fill-rule="nonzero"
       id="path62" />
    <path
       fill="#000000"
       fill-opacity="0.0"
       d="m53.32546 32.834644l-16.0 19.653545"
       fill-rule="evenodd"
       id="path64" />
    <path
       stroke="#000000"
       stroke-width="1.0"
       stroke-linejoin="round"
       stroke-linecap="butt"
       d="m53.32546 32.834644l-16.0 19.653545"
       fill-rule="evenodd"
       id="path66" />
    <path
       fill="#000000"
       fill-opacity="0.0"
       d="m17.538057 44.46719l48.409454 0l0 35.559055l-48.409454 0z"
       fill-rule="evenodd"
       id="path68" />
    <path
       fill="#000000"
       d="m28.897432 61.095314q-0.734375 -0.265625 -1.09375 -0.765625q-0.34375 -0.5 -0.34375 -1.1875q0 -1.03125 0.75 -1.734375q0.75 -0.71875 1.984375 -0.71875q1.25 0 2.015627 0.734375q0.765625 0.71875 0.765625 1.75q0 0.671875 -0.359375 1.171875q-0.34375 0.484375 -1.0468769 0.75q0.8750019 0.28125 1.3281269 0.921875q0.46875 0.640625 0.46875 1.515625q0 1.234375 -0.875 2.0625q-0.8593769 0.828125 -2.265627 0.828125q-1.421875 0 -2.28125 -0.828125q-0.859375 -0.84375 -0.859375 -2.09375q0 -0.921875 0.46875 -1.546875q0.46875 -0.640625 1.34375 -0.859375zm-0.234375 -1.984375q0 0.671875 0.4375 1.109375q0.4375 0.421875 1.125 0.421875q0.671875 0 1.109375 -0.421875q0.4375 -0.421875 0.4375 -1.046875q0 -0.640625 -0.453125 -1.078125q-0.4375 -0.4375 -1.109375 -0.4375q-0.671875 0 -1.109375 0.4375q-0.4375 0.421875 -0.4375 1.015625zm-0.375 4.40625q0 0.5 0.234375 0.96875q0.234375 0.46875 0.703125 0.734375q0.46875 0.25 1.015625 0.25q0.828125 0 1.375 -0.53125q0.5468769 -0.546875 0.5468769 -1.390625q0 -0.84375 -0.5625019 -1.390625q-0.5625 -0.5625 -1.40625 -0.5625q-0.828125 0 -1.375 0.546875q-0.53125 0.546875 -0.53125 1.375z"
       fill-rule="nonzero"
       id="path70" />
    <path
       fill="#000000"
       fill-opacity="0.0"
       d="m191.03674 14.868767l48.409454 0l0 35.559055l-48.409454 0z"
       fill-rule="evenodd"
       id="path72" />
    <path
       fill="#000000"
       d="m200.45862 28.871891l0.296875 -0.921875q1.03125 0.375 1.5 0.640625q-0.125 -1.1875 -0.125 -1.625l0.9375 0q-0.015625 0.640625 -0.140625 1.609375q0.65625 -0.328125 1.53125 -0.625l0.296875 0.921875q-0.828125 0.28125 -1.625 0.375q0.40625 0.34375 1.125 1.21875l-0.78125 0.5625q-0.375 -0.515625 -0.890625 -1.40625q-0.484375 0.921875 -0.84375 1.40625l-0.765625 -0.5625q0.75 -0.921875 1.078125 -1.21875q-0.84375 -0.171875 -1.59375 -0.375z"
       fill-rule="nonzero"
       id="path74" />
    <path
       fill="#000000"
       fill-opacity="0.0"
       d="m163.05774 43.29134l48.409454 0l0 35.559055l-48.409454 0z"
       fill-rule="evenodd"
       id="path76" />
    <path
       fill="#000000"
       d="m172.62024 62.575714l1.171875 -0.15625q0.203125 1.0 0.6875 1.4375q0.484375 0.4375 1.171875 0.4375q0.828125 0 1.390625 -0.578125q0.578125 -0.578125 0.578125 -1.421875q0 -0.796875 -0.53125 -1.3125q-0.515625 -0.53125 -1.328125 -0.53125q-0.34375 0 -0.828125 0.125l0.125 -1.03125q0.125 0.015625 0.1875 0.015625q0.75 0 1.34375 -0.390625q0.609375 -0.390625 0.609375 -1.203125q0 -0.640625 -0.4375 -1.0625q-0.4375 -0.421875 -1.125 -0.421875q-0.6875 0 -1.140625 0.4375q-0.453125 0.421875 -0.59375 1.28125l-1.171875 -0.21875q0.21875 -1.171875 0.984375 -1.8125q0.765625 -0.65625 1.890625 -0.65625q0.78125 0 1.4375 0.34375q0.65625 0.328125 1.0 0.90625q0.359375 0.578125 0.359375 1.234375q0 0.609375 -0.34375 1.125q-0.328125 0.5 -0.96875 0.796875q0.84375 0.203125 1.3125 0.828125q0.46875 0.609375 0.46875 1.53125q0 1.25 -0.921875 2.125q-0.90625 0.859375 -2.296875 0.859375q-1.25 0 -2.09375 -0.75q-0.828125 -0.75 -0.9375 -1.9375z"
       fill-rule="nonzero"
       id="path78" />
    <path
       fill="#000000"
       fill-opacity="0.0"
       d="m198.5433 33.965878l-16.0 19.653545"
       fill-rule="evenodd"
       id="path80" />
    <path
       stroke="#000000"
       stroke-width="1.0"
       stroke-linejoin="round"
       stroke-linecap="butt"
       d="m198.5433 33.965878l-16.0 19.653545"
       fill-rule="evenodd"
       id="path82" />
    <path
       fill="#000000"
       fill-opacity="0.0"
       d="m208.44357 43.29134l48.409454 0l0 35.559055l-48.409454 0z"
       fill-rule="evenodd"
       id="path84" />
    <path
       fill="#000000"
       d="m218.17795 62.888214l1.125 -0.109375q0.140625 0.796875 0.546875 1.15625q0.40625 0.359375 1.03125 0.359375q0.53125 0 0.9375 -0.25q0.421875 -0.25 0.671875 -0.65625q0.265625 -0.421875 0.4375 -1.125q0.171875 -0.703125 0.171875 -1.421875q0 -0.078125 0 -0.234375q-0.359375 0.546875 -0.96875 0.90625q-0.59375 0.34375 -1.3125 0.34375q-1.1875 0 -2.015625 -0.859375q-0.8125 -0.859375 -0.8125 -2.265625q0 -1.453125 0.859375 -2.328125q0.859375 -0.890625 2.140625 -0.890625q0.9375 0 1.703125 0.5q0.78125 0.5 1.171875 1.4375q0.40625 0.921875 0.40625 2.671875q0 1.828125 -0.40625 2.921875q-0.390625 1.078125 -1.171875 1.640625q-0.78125 0.5625 -1.84375 0.5625q-1.109375 0 -1.828125 -0.609375q-0.703125 -0.625 -0.84375 -1.75zm4.796875 -4.21875q0 -1.0 -0.546875 -1.59375q-0.53125 -0.59375 -1.28125 -0.59375q-0.78125 0 -1.375 0.640625q-0.578125 0.640625 -0.578125 1.65625q0 0.90625 0.546875 1.484375q0.5625 0.5625 1.359375 0.5625q0.828125 0 1.34375 -0.5625q0.53125 -0.578125 0.53125 -1.59375z"
       fill-rule="nonzero"
       id="path86" />
    <path
       fill="#000000"
       fill-opacity="0.0"
       d="m205.55905 34.391075l11.212601 18.362206"
       fill-rule="evenodd"
       id="path88" />
    <path
       stroke="#000000"
       stroke-width="1.0"
       stroke-linejoin="round"
       stroke-linecap="butt"
       d="m205.55905 34.391075l11.212601 18.362206"
       fill-rule="evenodd"
       id="path90" />
    <path
       fill="#000000"
       fill-opacity="0.0"
       d="m200.71654 90.35433l48.409454 0l0 35.55905l-48.409454 0z"
       fill-rule="evenodd"
       id="path92" />
    <path
       fill="#000000"
       d="m210.13841 104.35745l0.296875 -0.921875q1.03125 0.375 1.5 0.640625q-0.125 -1.1875 -0.125 -1.625l0.9375 0q-0.015625 0.640625 -0.140625 1.609375q0.65625 -0.328125 1.53125 -0.625l0.296875 0.921875q-0.828125 0.28125 -1.625 0.375q0.40625 0.34375 1.125 1.21875l-0.78125 0.5625q-0.375 -0.515625 -0.890625 -1.40625q-0.484375 0.921875 -0.84375 1.40625l-0.765625 -0.5625q0.75 -0.921875 1.078125 -1.21875q-0.84375 -0.171875 -1.59375 -0.375z"
       fill-rule="nonzero"
       id="path94" />
    <path
       fill="#000000"
       fill-opacity="0.0"
       d="m171.01837 120.020996l48.409454 0l0 35.55905l-48.409454 0z"
       fill-rule="evenodd"
       id="path96" />
    <path
       fill="#000000"
       d="m183.36212 140.27412l0 -2.609375l-2.609375 0l0 -1.09375l2.609375 0l0 -2.59375l1.09375 0l0 2.59375l2.609375 0l0 1.09375l-2.609375 0l0 2.609375l-1.09375 0z"
       fill-rule="nonzero"
       id="path98" />
    <path
       fill="#000000"
       fill-opacity="0.0"
       d="m143.90027 155.5433l48.40944 0l0 35.55905l-48.40944 0z"
       fill-rule="evenodd"
       id="path100" />
    <path
       fill="#000000"
       d="m159.6034 176.2183l0 1.125l-6.296875 0q-0.015625 -0.421875 0.140625 -0.8125q0.234375 -0.640625 0.765625 -1.265625q0.53125 -0.625 1.53125 -1.453125q1.5625 -1.265625 2.109375 -2.015625q0.546875 -0.75 0.546875 -1.40625q0 -0.703125 -0.5 -1.171875q-0.5 -0.484375 -1.296875 -0.484375q-0.859375 0 -1.375 0.515625q-0.5 0.5 -0.5 1.390625l-1.203125 -0.109375q0.125 -1.359375 0.921875 -2.0625q0.8125 -0.703125 2.171875 -0.703125q1.375 0 2.171875 0.765625q0.8125 0.75 0.8125 1.875q0 0.578125 -0.234375 1.140625q-0.234375 0.546875 -0.78125 1.15625q-0.546875 0.609375 -1.8125 1.671875q-1.046875 0.890625 -1.359375 1.21875q-0.296875 0.3125 -0.484375 0.625l4.671875 0z"
       fill-rule="nonzero"
       id="path102" />
    <path
       fill="#000000"
       fill-opacity="0.0"
       d="m177.71391 145.4357l-16.0 19.653534"
       fill-rule="evenodd"
       id="path104" />
    <path
       stroke="#000000"
       stroke-width="1.0"
       stroke-linejoin="round"
       stroke-linecap="butt"
       d="m177.71391 145.4357l-16.0 19.653534"
       fill-rule="evenodd"
       id="path106" />
    <path
       fill="#000000"
       fill-opacity="0.0"
       d="m190.55905 154.2231l48.409454 0l0 35.55905l-48.409454 0z"
       fill-rule="evenodd"
       id="path108" />
    <path
       fill="#000000"
       d="m200.12155 173.50748l1.171875 -0.15625q0.203125 1.0 0.6875 1.4375q0.484375 0.4375 1.171875 0.4375q0.828125 0 1.390625 -0.578125q0.578125 -0.578125 0.578125 -1.421875q0 -0.796875 -0.53125 -1.3125q-0.515625 -0.53125 -1.328125 -0.53125q-0.34375 0 -0.828125 0.125l0.125 -1.03125q0.125 0.015625 0.1875 0.015625q0.75 0 1.34375 -0.390625q0.609375 -0.390625 0.609375 -1.203125q0 -0.640625 -0.4375 -1.0625q-0.4375 -0.421875 -1.125 -0.421875q-0.6875 0 -1.140625 0.4375q-0.453125 0.421875 -0.59375 1.28125l-1.171875 -0.21875q0.21875 -1.171875 0.984375 -1.8125q0.765625 -0.65625 1.890625 -0.65625q0.78125 0 1.4375 0.34375q0.65625 0.328125 1.0 0.90625q0.359375 0.578125 0.359375 1.234375q0 0.609375 -0.34375 1.125q-0.328125 0.5 -0.96875 0.796875q0.84375 0.203125 1.3125 0.828125q0.46875 0.609375 0.46875 1.53125q0 1.25 -0.921875 2.125q-0.90625 0.859375 -2.296875 0.859375q-1.25 0 -2.09375 -0.75q-0.828125 -0.75 -0.9375 -1.9375z"
       fill-rule="nonzero"
       id="path110" />
    <path
       fill="#000000"
       fill-opacity="0.0"
       d="m188.98425 145.4357l11.212601 18.362198"
       fill-rule="evenodd"
       id="path112" />
    <path
       stroke="#000000"
       stroke-width="1.0"
       stroke-linejoin="round"
       stroke-linecap="butt"
       d="m188.98425 145.4357l11.212601 18.362198"
       fill-rule="evenodd"
       id="path114" />
    <path
       fill="#000000"
       fill-opacity="0.0"
       d="m206.82677 109.727036l-18.236221 22.803146"
       fill-rule="evenodd"
       id="path116" />
    <path
       stroke="#000000"
       stroke-width="1.0"
       stroke-linejoin="round"
       stroke-linecap="butt"
       d="m206.82677 109.727036l-18.236221 22.803146"
       fill-rule="evenodd"
       id="path118" />
    <path
       fill="#000000"
       fill-opacity="0.0"
       d="m227.60892 120.020996l48.409454 0l0 35.55905l-48.409454 0z"
       fill-rule="evenodd"
       id="path120" />
    <path
       fill="#000000"
       d="m239.95267 140.27412l0 -2.609375l-2.609375 0l0 -1.09375l2.609375 0l0 -2.59375l1.09375 0l0 2.59375l2.609375 0l0 1.09375l-2.609375 0l0 2.609375l-1.09375 0z"
       fill-rule="nonzero"
       id="path122" />
    <path
       fill="#000000"
       fill-opacity="0.0"
       d="m211.4672 154.2231l48.409454 0l0 35.55905l-48.409454 0z"
       fill-rule="evenodd"
       id="path124" />
    <path
       fill="#000000"
       d="m225.43594 176.0231l-1.171875 0l0 -7.46875q-0.421875 0.40625 -1.109375 0.8125q-0.6875 0.40625 -1.234375 0.609375l0 -1.140625q0.984375 -0.453125 1.71875 -1.109375q0.734375 -0.671875 1.03125 -1.28125l0.765625 0l0 9.578125z"
       fill-rule="nonzero"
       id="path126" />
    <path
       fill="#000000"
       fill-opacity="0.0"
       d="m239.16667 144.69554l-13.039368 19.842514"
       fill-rule="evenodd"
       id="path128" />
    <path
       stroke="#000000"
       stroke-width="1.0"
       stroke-linejoin="round"
       stroke-linecap="butt"
       d="m239.16667 144.69554l-13.039368 19.842514"
       fill-rule="evenodd"
       id="path130" />
    <path
       fill="#000000"
       fill-opacity="0.0"
       d="m249.12599 154.2231l48.40944 0l0 35.55905l-48.40944 0z"
       fill-rule="evenodd"
       id="path132" />
    <path
       fill="#000000"
       d="m264.75098 168.81998l-1.15625 0.09375q-0.15625 -0.6875 -0.4375 -1.0q-0.484375 -0.5 -1.171875 -0.5q-0.5625 0 -0.984375 0.3125q-0.5625 0.390625 -0.890625 1.171875q-0.3125 0.765625 -0.3125 2.203125q0.421875 -0.640625 1.03125 -0.953125q0.609375 -0.3125 1.28125 -0.3125q1.171875 0 1.984375 0.859375q0.828125 0.859375 0.828125 2.234375q0 0.890625 -0.390625 1.671875q-0.375 0.765625 -1.0625 1.171875q-0.671875 0.40625 -1.53125 0.40625q-1.46875 0 -2.390625 -1.0625q-0.921875 -1.078125 -0.921875 -3.5625q0 -2.765625 1.015625 -4.015625q0.90625 -1.09375 2.40625 -1.09375q1.125 0 1.84375 0.640625q0.71875 0.625 0.859375 1.734375zm-4.78125 4.109375q0 0.609375 0.25 1.171875q0.265625 0.546875 0.71875 0.84375q0.46875 0.28125 0.984375 0.28125q0.734375 0 1.265625 -0.59375q0.546875 -0.609375 0.546875 -1.640625q0 -0.984375 -0.53125 -1.546875q-0.53125 -0.578125 -1.328125 -0.578125q-0.796875 0 -1.359375 0.578125q-0.546875 0.5625 -0.546875 1.484375z"
       fill-rule="nonzero"
       id="path134" />
    <path
       fill="#000000"
       fill-opacity="0.0"
       d="m245.86876 145.4357l11.212601 18.362198"
       fill-rule="evenodd"
       id="path136" />
    <path
       stroke="#000000"
       stroke-width="1.0"
       stroke-linejoin="round"
       stroke-linecap="butt"
       d="m245.86876 145.4357l11.212601 18.362198"
       fill-rule="evenodd"
       id="path138" />
    <path
       fill="#000000"
       fill-opacity="0.0"
       d="m219.31496 110.502625l16.409454 19.149612"
       fill-rule="evenodd"
       id="path140" />
    <path
       stroke="#000000"
       stroke-width="1.0"
       stroke-linejoin="round"
       stroke-linecap="butt"
       d="m219.31496 110.502625l16.409454 19.149612"
       fill-rule="evenodd"
       id="path142" />
    <text
       xml:space="preserve"
       id="text2485"
       style="font-size:24px;line-height:1.25;font-family:sans-serif;white-space:pre;shape-inside:url(#rect2487);fill:#000000" />
    <text
       xml:space="preserve"
       style="font-size:24px;line-height:1.25;font-family:sans-serif"
       x="-27.594994"
       y="84.424286"
       id="text4275"><tspan
         sodipodi:role="line"
         id="tspan4273"
         x="-27.594994"
         y="84.424286">a</tspan></text>
    <text
       xml:space="preserve"
       id="text10463"
       style="font-size:24px;line-height:1.25;font-family:sans-serif;white-space:pre;shape-inside:url(#rect10465)"><tspan
         x="-51.576172"
         y="91.292412"
         id="tspan55132"><tspan
           style="fill:#000000;stroke:#1a1a1a"
           id="tspan55130">ش</tspan></tspan></text>
    <text
       xml:space="preserve"
       id="text13777"
       style="font-size:24px;line-height:1.25;font-family:sans-serif;white-space:pre;shape-inside:url(#rect13779)"><tspan
         x="4.1777344"
         y="101.94866"
         id="tspan55134">یسبشیب</tspan></text>
  </g>
  <g
     aria-label="A."
     transform="translate(54.91677,-30.873607)"
     id="text38468"
     style="font-size:17.3333px;line-height:1.25;white-space:pre;shape-inside:url(#rect38470);fill:#666666">
    <path
       d="m -27.167991,51.331273 h -1.785804 L -30.18947,47.81891 h -5.45051 l -1.235675,3.512363 h -1.701168 l 4.58723,-12.602189 h 2.234371 z m -3.537754,-4.951162 -2.20898,-6.186837 -2.217444,6.186837 z"
       id="path54991" />
    <path
       d="m -22.783885,51.331273 h -2.022783 v -2.412105 h 2.022783 z"
       id="path54993" />
  </g>
  <g
     aria-label="B."
     transform="translate(196.52353,-30.276419)"
     id="text38468-8"
     style="font-size:17.3333px;line-height:1.25;white-space:pre;shape-inside:url(#rect38470-2);fill:#666666">
    <path
       d="m -27.599631,47.454978 q 0,0.939452 -0.355468,1.658851 -0.355468,0.7194 -0.956379,1.184894 -0.710936,0.558592 -1.565752,0.795571 -0.846352,0.236979 -2.158199,0.236979 H -37.10417 V 38.729084 h 3.732415 q 1.379554,0 2.0651,0.101562 0.685545,0.101562 1.311846,0.423176 0.694009,0.363932 1.00716,0.939452 0.31315,0.567056 0.31315,1.362627 0,0.897134 -0.45703,1.531898 -0.457031,0.626301 -1.218748,1.00716 v 0.06771 q 1.277992,0.262369 2.014319,1.125649 0.736327,0.854816 0.736327,2.166662 z m -2.818354,-5.679025 q 0,-0.45703 -0.152343,-0.770181 -0.152344,-0.31315 -0.490885,-0.507811 -0.397786,-0.228516 -0.964842,-0.279297 -0.567056,-0.05924 -1.404945,-0.05924 h -1.997392 v 3.639315 h 2.166662 q 0.787108,0 1.252602,-0.07617 0.465494,-0.08464 0.86328,-0.338541 0.397785,-0.253906 0.558592,-0.651692 0.169271,-0.406249 0.169271,-0.956378 z m 1.074868,5.746734 q 0,-0.761718 -0.228516,-1.210285 -0.228515,-0.448566 -0.829425,-0.761717 -0.406249,-0.211588 -0.990232,-0.270833 -0.57552,-0.06771 -1.404946,-0.06771 h -2.632156 v 4.688793 h 2.217444 q 1.100258,0 1.802731,-0.110026 0.702472,-0.118489 1.151039,-0.423176 0.473957,-0.330077 0.694009,-0.753254 0.220052,-0.423176 0.220052,-1.091794 z"
       id="path54996" />
    <path
       d="m -22.750031,51.331273 h -2.022783 v -2.412105 h 2.022783 z"
       id="path54998" />
  </g>
  <g
     aria-label="C."
     transform="translate(59.434622,117.53439)"
     id="text38468-8-4"
     style="font-size:17.3333px;line-height:1.25;white-space:pre;shape-inside:url(#rect38470-2-8);fill:#666666">
    <path
       d="m -27.371116,50.417212 q -0.465494,0.203125 -0.846352,0.380859 -0.372396,0.177734 -0.981769,0.372395 -0.516275,0.160807 -1.125649,0.270833 -0.600911,0.118489 -1.328774,0.118489 -1.371091,0 -2.49674,-0.380859 -1.117185,-0.389322 -1.94661,-1.210284 -0.812499,-0.804035 -1.269529,-2.039709 -0.457031,-1.244138 -0.457031,-2.886062 0,-1.557289 0.440104,-2.7845 0.440103,-1.227211 1.269528,-2.073564 0.804035,-0.820962 1.938148,-1.252602 1.142576,-0.431639 2.530594,-0.431639 1.015623,0 2.022782,0.245442 1.015623,0.245442 2.251298,0.863279 v 1.988929 h -0.126953 q -1.041013,-0.871743 -2.0651,-1.269529 -1.024087,-0.397786 -2.192053,-0.397786 -0.956378,0 -1.726559,0.313151 -0.761717,0.304687 -1.362628,0.956378 -0.583983,0.634765 -0.91406,1.60807 -0.321614,0.964842 -0.321614,2.234371 0,1.328773 0.355468,2.285151 0.363931,0.956379 0.930987,1.557289 0.592447,0.626301 1.379555,0.930988 0.795571,0.296223 1.675778,0.296223 1.210284,0 2.268225,-0.414712 1.05794,-0.414713 1.980465,-1.244139 h 0.118489 z"
       id="path55006" />
    <path
       d="m -22.513052,51.331273 h -2.022783 v -2.412105 h 2.022783 z"
       id="path55008" />
  </g>
  <g
     aria-label="D."
     transform="translate(199.2901,52.78178)"
     id="text38468-8-4-6"
     style="font-size:17.3333px;line-height:1.25;white-space:pre;shape-inside:url(#rect38470-2-8-4);fill:#666666">
    <path
       d="m -26.457055,45.042874 q 0,1.718095 -0.753254,3.114577 -0.74479,1.396482 -1.988928,2.166662 -0.86328,0.533202 -1.929684,0.770181 -1.057941,0.236979 -2.792963,0.236979 H -37.10417 V 38.729084 h 3.148431 q 1.845049,0 2.92838,0.270833 1.091795,0.262369 1.845049,0.727863 1.286455,0.804035 2.005855,2.141272 0.7194,1.337237 0.7194,3.173822 z m -1.75195,-0.02539 q 0,-1.481117 -0.516275,-2.49674 -0.516275,-1.015623 -1.540362,-1.599606 -0.74479,-0.423176 -1.582679,-0.583983 -0.837889,-0.169271 -2.005855,-0.169271 h -1.574216 v 9.724591 h 1.574216 q 1.210284,0 2.107418,-0.177734 0.905597,-0.177734 1.65885,-0.660155 0.939452,-0.600911 1.404946,-1.58268 0.473957,-0.981769 0.473957,-2.454422 z"
       id="path55001" />
    <path
       d="m -21.260451,51.331273 h -2.022782 v -2.412105 h 2.022782 z"
       id="path55003" />
  </g>
</svg>
