<svg version="1.1" viewBox="0.0 0.0 992.3622047244095 472.63517060367457" fill="none" stroke="none" stroke-linecap="square" stroke-miterlimit="10" xmlns:xlink="http://www.w3.org/1999/xlink" xmlns="http://www.w3.org/2000/svg"><clipPath id="p.0"><path d="m0 0l992.3622 0l0 472.63516l-992.3622 0l0 -472.63516z" clip-rule="nonzero"/></clipPath><g clip-path="url(#p.0)"><path fill="#000000" fill-opacity="0.0" d="m0 0l992.3622 0l0 472.63516l-992.3622 0z" fill-rule="evenodd"/><path fill="#000000" fill-opacity="0.0" d="m311.95538 257.66666l361.07086 0l0 148.66144l-361.07086 0z" fill-rule="evenodd"/><path fill="#000000" d="m310.721 400.00415q-5.234375 0 -7.953125 -1.765625q-2.71875 -1.765625 -2.71875 -4.53125q0 -1.921875 1.609375 -3.46875q1.59375 -1.546875 2.984375 -1.546875q0.953125 0 1.859375 1.109375q0.90625 1.125 1.96875 2.40625q0.96875 1.28125 2.296875 2.296875q1.328125 1.015625 3.25 1.015625q1.8125 0 3.265625 -1.234375q1.4375 -1.21875 2.71875 -4.15625q1.265625 -2.9375 2.765625 -7.9375l14.40625 -49.5q0.53125 -1.921875 -1.5 -1.921875l-6.609375 0.109375q-0.859375 0 -1.1875 -0.421875q-0.3125 -0.421875 -0.3125 -1.0625q0 -0.859375 0.75 -1.921875q0.75 -1.0625 1.8125 -1.171875l7.140625 -0.4375q1.28125 -0.09375 1.8125 -1.90625l0.859375 -3.203125q2.78125 -9.921875 7.25 -15.84375q4.484375 -5.921875 9.4375 -8.53125q4.96875 -2.609375 9.015625 -2.609375q4.796875 0 7.671875 2.140625q2.890625 2.125 2.890625 5.53125q0 2.671875 -1.390625 4.375q-1.390625 1.703125 -3.203125 1.703125q-1.0625 0 -1.765625 -1.375q-0.6875 -1.390625 -1.53125 -3.3125q-0.96875 -2.125 -2.359375 -3.40625q-1.375 -1.28125 -3.625 -1.28125q-2.65625 0 -4.578125 1.59375q-1.921875 1.59375 -3.53125 5.171875q-1.59375 3.578125 -3.40625 9.546875q-0.640625 2.140625 -1.125 4.0625q-0.46875 1.90625 -1.109375 3.9375q-0.109375 0.640625 -0.265625 1.125q-0.15625 0.46875 -0.15625 1.015625q0 0.640625 0.359375 0.90625q0.375 0.265625 0.921875 0.265625q3.078125 0 5.84375 -0.15625q2.78125 -0.171875 5.453125 -0.171875q0.859375 0 0.859375 1.28125q0 0.421875 -0.4375 1.28125q-0.421875 0.859375 -1.125 1.5q-0.6875 0.640625 -1.421875 0.640625l-9.390625 0.203125q-1.28125 0 -2.078125 0.4375q-0.796875 0.421875 -1.015625 1.59375q-3.625 11.84375 -7.046875 24.0q-3.40625 12.15625 -6.609375 24.0q-0.953125 4.046875 -3.578125 7.5625q-2.609375 3.515625 -5.96875 6.234375q-3.359375 2.734375 -6.546875 4.28125q-3.203125 1.546875 -5.65625 1.546875zm59.942474 -7.90625q-3.0 0 -4.90625 -4.359375q-2.671875 -6.625 -3.90625 -13.1875q-1.21875 -6.546875 -1.21875 -13.265625q0 -12.90625 4.46875 -24.953125q4.484375 -12.0625 12.640625 -22.5625q8.171875 -10.515625 19.15625 -18.609375q1.921875 -1.28125 3.625 -1.28125q1.390625 0 1.390625 0.84375q0 0.4375 -0.328125 1.03125q-0.3125 0.578125 -1.171875 1.3125q-6.609375 6.296875 -12.375 13.828125q-5.75 7.515625 -10.078125 15.84375q-4.3125 8.3125 -6.828125 17.171875q-2.5 8.84375 -2.5 17.6875q0 6.1875 0.375 10.984375q0.375 4.796875 1.109375 8.84375q0.75 4.0625 1.828125 8.125q0.203125 1.0625 -0.171875 1.796875q-0.375 0.75 -1.109375 0.75zm22.280182 -21.53125q-1.921875 0 -3.25 -1.1875q-1.328125 -1.171875 -1.328125 -3.1875q0 -1.5 0.796875 -3.09375q0.796875 -1.609375 1.96875 -2.71875q1.171875 -1.125 2.140625 -1.125q0.75 0 1.21875 0.53125q0.484375 0.53125 0.703125 1.28125q0.3125 1.0625 0.953125 1.609375q0.640625 0.53125 1.390625 0.53125q0.84375 0.09375 1.703125 -0.375q0.859375 -0.484375 1.703125 -1.34375q1.703125 -1.8125 3.25 -3.515625q1.546875 -1.703125 3.09375 -3.5625q1.546875 -1.875 3.359375 -3.90625q0.4375 -0.53125 0.53125 -1.109375q0.109375 -0.59375 -0.203125 -1.125l-4.046875 -14.5q-0.21875 -1.171875 -0.59375 -1.484375q-0.375 -0.328125 -0.90625 -0.328125q-0.953125 0 -2.609375 1.328125q-1.65625 1.328125 -3.6875 4.109375q-0.203125 0.203125 -0.578125 0.796875q-0.375 0.578125 -1.015625 0.578125q-0.421875 0 -0.640625 -0.46875q-0.21875 -0.484375 -0.21875 -1.234375q0 -1.703125 1.125 -3.890625q1.125 -2.1875 2.9375 -4.265625q1.8125 -2.078125 4.09375 -3.40625q2.296875 -1.34375 4.4375 -1.34375q2.015625 0 3.1875 1.609375q1.1875 1.59375 2.03125 4.46875l2.78125 10.78125q0.3125 1.59375 1.484375 0.109375l7.046875 -10.03125q2.125 -2.984375 4.734375 -4.953125q2.625 -1.984375 5.28125 -1.984375q2.359375 0 4.0625 1.8125q1.703125 1.8125 1.8125 3.203125q0 1.171875 -0.8125 2.671875q-0.796875 1.484375 -1.921875 2.5625q-1.109375 1.0625 -2.0625 1.0625q-0.859375 0 -1.34375 -0.53125q-0.46875 -0.53125 -0.796875 -1.28125q-0.53125 -1.28125 -1.0625 -1.765625q-0.53125 -0.484375 -1.390625 -0.484375q-1.171875 0 -2.5625 0.90625q-1.375 0.90625 -3.296875 3.15625q-1.5 1.703125 -3.203125 3.84375q-1.703125 2.125 -3.515625 5.109375q-0.546875 0.640625 -0.703125 1.5q-0.15625 0.84375 0.265625 2.234375l3.421875 12.375q0.421875 1.484375 1.0 2.078125q0.59375 0.59375 1.234375 0.59375q1.28125 0 3.140625 -1.96875q1.875 -1.984375 3.578125 -5.71875q0.640625 -1.28125 1.390625 -1.28125q0.421875 0 0.6875 0.375q0.265625 0.375 0.265625 1.765625q0 1.484375 -0.96875 3.890625q-0.953125 2.390625 -2.609375 4.75q-1.640625 2.34375 -3.890625 3.953125q-2.234375 1.59375 -4.6875 1.59375q-2.984375 0 -4.59375 -1.96875q-1.59375 -1.984375 -2.4375 -5.078125q-0.4375 -2.125 -1.078125 -4.796875q-0.640625 -2.671875 -1.171875 -4.796875q-0.203125 -1.078125 -0.578125 -1.234375q-0.375 -0.15625 -0.90625 0.703125q-2.25 2.765625 -4.4375 5.8125q-2.171875 3.03125 -4.53125 5.8125q-2.34375 2.984375 -4.640625 4.265625q-2.28125 1.28125 -4.53125 1.28125zm68.37714 -76.90625q2.984375 0 4.796875 4.375q2.765625 6.5 3.984375 13.125q1.234375 6.609375 1.234375 13.21875q0 12.796875 -4.484375 24.953125q-4.46875 12.15625 -12.625 22.609375q-8.15625 10.453125 -19.15625 18.5625q-1.90625 1.390625 -3.625 1.390625q-1.375 0 -1.375 -0.96875q0 -0.421875 0.328125 -1.015625q0.3125 -0.578125 1.15625 -1.328125q6.609375 -6.296875 12.3125 -13.8125q5.71875 -7.515625 10.09375 -15.828125q4.375 -8.328125 6.875 -17.171875q2.5 -8.859375 2.5 -17.71875q0 -6.171875 -0.375 -10.96875q-0.359375 -4.8125 -1.0625 -8.859375q-0.6875 -4.0625 -1.96875 -8.109375q-0.21875 -1.0625 0.15625 -1.75q0.375 -0.703125 1.234375 -0.703125z" fill-rule="nonzero"/><path fill="#cfe2f3" d="m45.762283 109.56926l0 0c-2.8557014 -18.83857 6.520138 -37.487617 24.149002 -48.033653c17.628868 -10.54604 40.419037 -11.139526 58.6998 -1.5286217l0 0c6.4756165 -10.953529 18.327866 -18.516186 31.97168 -20.40041c13.643814 -1.8842278 27.476685 2.1312828 37.314423 10.831921l0 0c5.516388 -9.931171 16.3479 -16.603653 28.650955 -17.649696c12.30307 -1.0460415 24.336487 3.6823921 31.830185 12.507408l0 0c9.966156 -10.527016 25.82257 -14.959328 40.70807 -11.379047c14.885468 3.5802765 26.126495 14.530098 28.858978 28.111412l0 0c12.210236 2.9897156 22.381104 10.589973 27.884766 20.837112c5.5036926 10.247139 5.8002625 22.135925 0.81314087 32.594696l0 0c12.023499 14.047264 14.836121 32.765068 7.3881836 49.168266c-7.4479065 16.403214 -24.037384 28.027405 -43.577545 30.534653c-0.13772583 15.394989 -9.543304 29.521255 -24.591461 36.9339c-15.048157 7.4126587 -33.389038 6.954178 -47.953262 -1.1987l0 0c-6.203583 18.438171 -23.664612 32.00479 -44.83928 34.838593c-21.174652 2.8338013 -42.266968 -5.5732117 -54.164276 -21.588943l0 0c-14.583618 7.8941956 -32.08275 10.168259 -48.549934 6.3092194c-16.467186 -3.8590546 -30.51532 -13.526138 -38.97542 -26.820587l0 0c-14.902622 1.5654602 -29.311401 -5.365509 -36.07531 -17.353073c-6.7639065 -11.987564 -4.4430695 -26.479858 5.81069 -36.284424l0 0c-13.293526 -7.023514 -20.076685 -20.96051 -16.812325 -34.543396c3.2643604 -13.5828705 15.836525 -23.733696 31.1606 -25.159218z" fill-rule="evenodd"/><path fill="#000000" fill-opacity="0.0" d="m31.119427 169.99794l0 0c6.273258 3.3144226 13.520336 4.817917 20.768208 4.3086243m9.493149 49.33008c3.1168518 -0.3274231 6.171959 -1.020752 9.086525 -2.0621338m78.43447 22.572632c-2.1921997 -2.9510498 -4.027603 -6.104492 -5.4749756 -9.406616m104.48233 -3.8435822l0 0c1.1309967 -3.361557 1.8638 -6.8213196 2.1861572 -10.321579m70.35582 -25.412323c0.14663696 -16.390335 -10.2239685 -31.397507 -26.657349 -38.575485m62.846375 -41.12571c-2.6613464 5.5812225 -6.724182 10.532242 -11.869934 14.464882m-16.8255 -67.89815l0 0c0.4534607 2.2538261 0.6633301 4.541523 0.62667847 6.8313866m-70.192535 -23.563072l0 0c-2.4860535 2.625969 -4.5342407 5.5604553 -6.08078 8.712086m-54.40094 -3.570942l0 0c-1.3248444 2.3851433 -2.3141632 4.9090385 -2.9451447 7.513542m-66.341965 2.0551414l0 0c3.8682098 2.033661 7.446808 4.481388 10.657227 7.2894173m-93.50496 42.273125l0 0c0.39358902 2.5964508 1.01548 5.160881 1.8598557 7.669304" fill-rule="evenodd"/><path stroke="#000000" stroke-width="1.0" stroke-linejoin="round" stroke-linecap="butt" d="m45.762283 109.56926l0 0c-2.8557014 -18.83857 6.520138 -37.487617 24.149002 -48.033653c17.628868 -10.54604 40.419037 -11.139526 58.6998 -1.5286217l0 0c6.4756165 -10.953529 18.327866 -18.516186 31.97168 -20.40041c13.643814 -1.8842278 27.476685 2.1312828 37.314423 10.831921l0 0c5.516388 -9.931171 16.3479 -16.603653 28.650955 -17.649696c12.30307 -1.0460415 24.336487 3.6823921 31.830185 12.507408l0 0c9.966156 -10.527016 25.82257 -14.959328 40.70807 -11.379047c14.885468 3.5802765 26.126495 14.530098 28.858978 28.111412l0 0c12.210236 2.9897156 22.381104 10.589973 27.884766 20.837112c5.5036926 10.247139 5.8002625 22.135925 0.81314087 32.594696l0 0c12.023499 14.047264 14.836121 32.765068 7.3881836 49.168266c-7.4479065 16.403214 -24.037384 28.027405 -43.577545 30.534653c-0.13772583 15.394989 -9.543304 29.521255 -24.591461 36.9339c-15.048157 7.4126587 -33.389038 6.954178 -47.953262 -1.1987l0 0c-6.203583 18.438171 -23.664612 32.00479 -44.83928 34.838593c-21.174652 2.8338013 -42.266968 -5.5732117 -54.164276 -21.588943l0 0c-14.583618 7.8941956 -32.08275 10.168259 -48.549934 6.3092194c-16.467186 -3.8590546 -30.51532 -13.526138 -38.97542 -26.820587l0 0c-14.902622 1.5654602 -29.311401 -5.365509 -36.07531 -17.353073c-6.7639065 -11.987564 -4.4430695 -26.479858 5.81069 -36.284424l0 0c-13.293526 -7.023514 -20.076685 -20.96051 -16.812325 -34.543396c3.2643604 -13.5828705 15.836525 -23.733696 31.1606 -25.159218z" fill-rule="evenodd"/><path stroke="#000000" stroke-width="1.0" stroke-linejoin="round" stroke-linecap="butt" d="m31.119427 169.99794l0 0c6.273258 3.3144226 13.520336 4.817917 20.768208 4.3086243m9.493149 49.33008c3.1168518 -0.3274231 6.171959 -1.020752 9.086525 -2.0621338m78.43447 22.572632c-2.1921997 -2.9510498 -4.027603 -6.104492 -5.4749756 -9.406616m104.48233 -3.8435822l0 0c1.1309967 -3.361557 1.8638 -6.8213196 2.1861572 -10.321579m70.35582 -25.412323c0.14663696 -16.390335 -10.2239685 -31.397507 -26.657349 -38.575485m62.846375 -41.12571c-2.6613464 5.5812225 -6.724182 10.532242 -11.869934 14.464882m-16.8255 -67.89815l0 0c0.4534607 2.2538261 0.6633301 4.541523 0.62667847 6.8313866m-70.192535 -23.563072l0 0c-2.4860535 2.625969 -4.5342407 5.5604553 -6.08078 8.712086m-54.40094 -3.570942l0 0c-1.3248444 2.3851433 -2.3141632 4.9090385 -2.9451447 7.513542m-66.341965 2.0551414l0 0c3.8682098 2.033661 7.446808 4.481388 10.657227 7.2894173m-93.50496 42.273125l0 0c0.39358902 2.5964508 1.01548 5.160881 1.8598557 7.669304" fill-rule="evenodd"/><path fill="#000000" fill-opacity="0.0" d="m106.002625 80.78084l193.88977 0l0 135.74803l-193.88977 0z" fill-rule="evenodd"/><path fill="#000000" d="m116.08075 107.305214l2.140625 -0.1875q0.15625 1.28125 0.703125 2.109375q0.5625 0.828125 1.734375 1.34375q1.171875 0.5 2.640625 0.5q1.296875 0 2.296875 -0.375q1.0 -0.390625 1.484375 -1.0625q0.484375 -0.6875 0.484375 -1.484375q0 -0.796875 -0.46875 -1.40625q-0.46875 -0.609375 -1.546875 -1.015625q-0.6875 -0.265625 -3.0625 -0.828125q-2.359375 -0.578125 -3.3125 -1.078125q-1.234375 -0.640625 -1.84375 -1.59375q-0.59375 -0.96875 -0.59375 -2.140625q0 -1.3125 0.734375 -2.4375q0.75 -1.125 2.15625 -1.703125q1.421875 -0.59375 3.15625 -0.59375q1.90625 0 3.359375 0.609375q1.46875 0.609375 2.25 1.8125q0.796875 1.1875 0.84375 2.703125l-2.171875 0.171875q-0.171875 -1.640625 -1.1875 -2.46875q-1.015625 -0.828125 -3.0 -0.828125q-2.0625 0 -3.015625 0.765625q-0.9375 0.75 -0.9375 1.8125q0 0.921875 0.671875 1.515625q0.65625 0.609375 3.421875 1.234375q2.78125 0.625 3.8125 1.09375q1.5 0.6875 2.203125 1.75q0.71875 1.0625 0.71875 2.4375q0 1.375 -0.78125 2.59375q-0.78125 1.203125 -2.25 1.890625q-1.46875 0.671875 -3.3125 0.671875q-2.328125 0 -3.90625 -0.671875q-1.578125 -0.6875 -2.484375 -2.046875q-0.890625 -1.375 -0.9375 -3.09375zm17.101562 -4.53125l0 -2.40625l2.40625 0l0 2.40625l-2.40625 0zm0 10.046875l0 -2.40625l2.40625 0l0 2.40625l-2.40625 0zm11.8984375 -3.71875l2.09375 -0.328125q0.171875 1.25 0.96875 1.921875q0.8125 0.671875 2.25 0.671875q1.453125 0 2.15625 -0.59375q0.703125 -0.59375 0.703125 -1.390625q0 -0.71875 -0.625 -1.125q-0.421875 -0.28125 -2.15625 -0.71875q-2.3125 -0.578125 -3.21875 -1.0q-0.890625 -0.4375 -1.359375 -1.1875q-0.453125 -0.765625 -0.453125 -1.671875q0 -0.828125 0.375 -1.53125q0.390625 -0.71875 1.046875 -1.1875q0.484375 -0.359375 1.328125 -0.609375q0.859375 -0.265625 1.828125 -0.265625q1.46875 0 2.578125 0.421875q1.109375 0.421875 1.625 1.15625q0.53125 0.71875 0.734375 1.921875l-2.0625 0.28125q-0.140625 -0.96875 -0.8125 -1.5q-0.671875 -0.546875 -1.90625 -0.546875q-1.453125 0 -2.078125 0.484375q-0.625 0.484375 -0.625 1.125q0 0.40625 0.265625 0.734375q0.25 0.34375 0.8125 0.5625q0.3125 0.125 1.859375 0.546875q2.234375 0.59375 3.109375 0.984375q0.890625 0.375 1.390625 1.109375q0.515625 0.71875 0.515625 1.796875q0 1.046875 -0.625 1.984375q-0.609375 0.9375 -1.765625 1.453125q-1.15625 0.5 -2.625 0.5q-2.421875 0 -3.703125 -1.0q-1.265625 -1.015625 -1.625 -3.0zm20.96875 2.1875q-1.171875 0.984375 -2.265625 1.40625q-1.078125 0.40625 -2.3125 0.40625q-2.046875 0 -3.15625 -1.0q-1.09375 -1.0 -1.09375 -2.5625q0 -0.921875 0.40625 -1.671875q0.421875 -0.75 1.09375 -1.203125q0.671875 -0.46875 1.515625 -0.703125q0.625 -0.15625 1.875 -0.3125q2.5625 -0.3125 3.765625 -0.734375q0.015625 -0.421875 0.015625 -0.546875q0 -1.28125 -0.609375 -1.8125q-0.796875 -0.71875 -2.390625 -0.71875q-1.5 0 -2.203125 0.53125q-0.703125 0.515625 -1.046875 1.84375l-2.0625 -0.28125q0.28125 -1.328125 0.921875 -2.140625q0.640625 -0.8125 1.859375 -1.25q1.21875 -0.453125 2.828125 -0.453125q1.59375 0 2.59375 0.375q1.0 0.375 1.46875 0.953125q0.46875 0.5625 0.65625 1.4375q0.09375 0.53125 0.09375 1.9375l0 2.8125q0 2.9375 0.140625 3.71875q0.140625 0.78125 0.53125 1.5l-2.203125 0q-0.328125 -0.65625 -0.421875 -1.53125zm-0.171875 -4.71875q-1.15625 0.46875 -3.453125 0.796875q-1.296875 0.1875 -1.84375 0.421875q-0.53125 0.234375 -0.828125 0.6875q-0.28125 0.453125 -0.28125 1.0q0 0.84375 0.625 1.40625q0.640625 0.5625 1.875 0.5625q1.21875 0 2.171875 -0.53125q0.953125 -0.53125 1.390625 -1.453125q0.34375 -0.71875 0.34375 -2.109375l0 -0.78125zm5.3789062 6.25l0 -12.453125l1.890625 0l0 1.890625q0.734375 -1.328125 1.34375 -1.75q0.625 -0.421875 1.359375 -0.421875q1.0625 0 2.171875 0.6875l-0.734375 1.953125q-0.765625 -0.453125 -1.546875 -0.453125q-0.6875 0 -1.25 0.421875q-0.546875 0.40625 -0.78125 1.140625q-0.34375 1.125 -0.34375 2.46875l0 6.515625l-2.109375 0zm1.5625 3.8125l0 -2.40625l2.40625 0l0 2.40625l-2.40625 0zm14.5703125 -5.34375q-1.171875 0.984375 -2.265625 1.40625q-1.078125 0.40625 -2.3125 0.40625q-2.046875 0 -3.15625 -1.0q-1.09375 -1.0 -1.09375 -2.5625q0 -0.921875 0.40625 -1.671875q0.421875 -0.75 1.09375 -1.203125q0.671875 -0.46875 1.515625 -0.703125q0.625 -0.15625 1.875 -0.3125q2.5625 -0.3125 3.765625 -0.734375q0.015625 -0.421875 0.015625 -0.546875q0 -1.28125 -0.609375 -1.8125q-0.796875 -0.71875 -2.390625 -0.71875q-1.5 0 -2.203125 0.53125q-0.703125 0.515625 -1.046875 1.84375l-2.0625 -0.28125q0.28125 -1.328125 0.921875 -2.140625q0.640625 -0.8125 1.859375 -1.25q1.21875 -0.453125 2.828125 -0.453125q1.59375 0 2.59375 0.375q1.0 0.375 1.46875 0.953125q0.46875 0.5625 0.65625 1.4375q0.09375 0.53125 0.09375 1.9375l0 2.8125q0 2.9375 0.140625 3.71875q0.140625 0.78125 0.53125 1.5l-2.203125 0q-0.328125 -0.65625 -0.421875 -1.53125zm-0.171875 -4.71875q-1.15625 0.46875 -3.453125 0.796875q-1.296875 0.1875 -1.84375 0.421875q-0.53125 0.234375 -0.828125 0.6875q-0.28125 0.453125 -0.28125 1.0q0 0.84375 0.625 1.40625q0.640625 0.5625 1.875 0.5625q1.21875 0 2.171875 -0.53125q0.953125 -0.53125 1.390625 -1.453125q0.34375 -0.71875 0.34375 -2.109375l0 -0.78125zm5.4101562 -8.5l0 -2.4375l2.109375 0l0 2.4375l-2.109375 0zm0 14.75l0 -12.453125l2.109375 0l0 12.453125l-2.109375 0zm16.015625 5.046875q-1.734375 -2.203125 -2.953125 -5.15625q-1.203125 -2.953125 -1.203125 -6.109375q0 -2.796875 0.90625 -5.34375q1.046875 -2.96875 3.25 -5.90625l1.515625 0q-1.421875 2.4375 -1.875 3.46875q-0.71875 1.625 -1.125 3.375q-0.5 2.203125 -0.5 4.40625q0 5.640625 3.5 11.265625l-1.515625 0zm3.9609375 -5.046875l0 -12.453125l1.890625 0l0 1.75q0.59375 -0.90625 1.5625 -1.46875q0.96875 -0.5625 2.21875 -0.5625q1.375 0 2.25 0.578125q0.890625 0.578125 1.265625 1.609375q1.46875 -2.1875 3.84375 -2.1875q1.84375 0 2.84375 1.03125q1.0 1.03125 1.0 3.15625l0 8.546875l-2.109375 0l0 -7.84375q0 -1.265625 -0.203125 -1.8125q-0.203125 -0.5625 -0.75 -0.90625q-0.53125 -0.34375 -1.25 -0.34375q-1.3125 0 -2.1875 0.875q-0.859375 0.875 -0.859375 2.796875l0 7.234375l-2.109375 0l0 -8.09375q0 -1.40625 -0.515625 -2.109375q-0.515625 -0.703125 -1.6875 -0.703125q-0.890625 0 -1.65625 0.46875q-0.75 0.46875 -1.09375 1.375q-0.34375 0.90625 -0.34375 2.609375l0 6.453125l-2.109375 0zm28.117188 -1.53125q-1.171875 0.984375 -2.265625 1.40625q-1.078125 0.40625 -2.3125 0.40625q-2.046875 0 -3.15625 -1.0q-1.09375 -1.0 -1.09375 -2.5625q0 -0.921875 0.40625 -1.671875q0.421875 -0.75 1.09375 -1.203125q0.671875 -0.46875 1.515625 -0.703125q0.625 -0.15625 1.875 -0.3125q2.5625 -0.3125 3.765625 -0.734375q0.015625 -0.421875 0.015625 -0.546875q0 -1.28125 -0.609375 -1.8125q-0.796875 -0.71875 -2.390625 -0.71875q-1.5 0 -2.203125 0.53125q-0.703125 0.515625 -1.046875 1.84375l-2.0625 -0.28125q0.28125 -1.328125 0.921875 -2.140625q0.640625 -0.8125 1.859375 -1.25q1.21875 -0.453125 2.828125 -0.453125q1.59375 0 2.59375 0.375q1.0 0.375 1.46875 0.953125q0.46875 0.5625 0.65625 1.4375q0.09375 0.53125 0.09375 1.9375l0 2.8125q0 2.9375 0.140625 3.71875q0.140625 0.78125 0.53125 1.5l-2.203125 0q-0.328125 -0.65625 -0.421875 -1.53125zm-0.171875 -4.71875q-1.15625 0.46875 -3.453125 0.796875q-1.296875 0.1875 -1.84375 0.421875q-0.53125 0.234375 -0.828125 0.6875q-0.28125 0.453125 -0.28125 1.0q0 0.84375 0.625 1.40625q0.640625 0.5625 1.875 0.5625q1.21875 0 2.171875 -0.53125q0.953125 -0.53125 1.390625 -1.453125q0.34375 -0.71875 0.34375 -2.109375l0 -0.78125zm5.3945312 6.25l0 -12.453125l1.90625 0l0 1.78125q1.375 -2.0625 3.953125 -2.0625q1.125 0 2.0625 0.40625q0.953125 0.40625 1.421875 1.0625q0.46875 0.65625 0.65625 1.5625q0.125 0.578125 0.125 2.046875l0 7.65625l-2.109375 0l0 -7.578125q0 -1.28125 -0.25 -1.921875q-0.25 -0.640625 -0.875 -1.015625q-0.625 -0.390625 -1.46875 -0.390625q-1.34375 0 -2.328125 0.859375q-0.984375 0.859375 -0.984375 3.25l0 6.796875l-2.109375 0zm14.738281 5.046875l-1.515625 0q3.5 -5.625 3.5 -11.265625q0 -2.203125 -0.5 -4.359375q-0.390625 -1.765625 -1.109375 -3.375q-0.453125 -1.0625 -1.890625 -3.515625l1.515625 0q2.203125 2.9375 3.25 5.90625q0.90625 2.546875 0.90625 5.34375q0 3.15625 -1.21875 6.109375q-1.203125 2.953125 -2.9375 5.15625z" fill-rule="nonzero"/><path fill="#000000" d="m116.158875 133.24585q0 -4.265625 2.296875 -6.6875076q2.296875 -2.421875 5.9375 -2.421875q2.375 0 4.28125 1.140625q1.921875 1.125 2.921875 3.1718826q1.0 2.03125 1.0 4.609375q0 2.609375 -1.0625 4.671875q-1.046875 2.0625 -2.984375 3.125q-1.9375 1.0625 -4.171875 1.0625q-2.421875 0 -4.34375 -1.171875q-1.90625 -1.171875 -2.890625 -3.203125q-0.984375 -2.03125 -0.984375 -4.296875zm2.34375 0.046875q0 3.09375 1.671875 4.890625q1.671875 1.78125 4.1875 1.78125q2.578125 0 4.234375 -1.796875q1.65625 -1.8125 1.65625 -5.125q0 -2.09375 -0.71875 -3.65625q-0.703125 -1.5781326 -2.078125 -2.4375076q-1.359375 -0.859375 -3.046875 -0.859375q-2.421875 0 -4.171875 1.65625q-1.734375 1.6562576 -1.734375 5.5468826zm17.339844 -1.71875l0 -2.40625l2.40625 0l0 2.40625l-2.40625 0zm0 10.046875l0 -2.40625l2.40625 0l0 2.40625l-2.40625 0zm11.6328125 0l0 -1.71875l7.921875 -9.09375q-1.34375 0.078125 -2.375 0.078125l-5.078125 0l0 -1.71875l10.171875 0l0 1.40625l-6.734375 7.890625l-1.296875 1.4375q1.40625 -0.09375 2.65625 -0.09375l5.75 0l0 1.8125l-11.015625 0zm24.0 -6.328125q0 2.875 -1.4375 4.671875q-1.5625 1.9375 -4.375 1.9375q-2.734375 0 -4.265625 -1.90625q-1.390625 -1.765625 -1.390625 -4.578125q0 -0.1875 0.015625 -0.5625l9.28125 0q-0.109375 -1.828125 -1.0 -2.953125q-1.015625 -1.28125 -2.765625 -1.28125q-2.375 0 -3.28125 2.5625l-2.1875 -0.265625q1.09375 -4.03125 5.484375 -4.03125q2.859375 0 4.4375 1.78125q1.484375 1.703125 1.484375 4.625zm-2.296875 1.296875l-6.953125 0q0.140625 1.578125 0.796875 2.359375q1.015625 1.21875 2.625 1.21875q1.53125 0 2.5 -1.03125q0.921875 -0.984375 1.03125 -2.546875zm15.453125 10.078125q-1.734375 -2.203125 -2.953125 -5.15625q-1.203125 -2.953125 -1.203125 -6.109375q0 -2.796875 0.90625 -5.34375q1.046875 -2.9687576 3.25 -5.9062576l1.515625 0q-1.421875 2.4375 -1.875 3.46875q-0.71875 1.6250076 -1.125 3.3750076q-0.5 2.203125 -0.5 4.40625q0 5.640625 3.5 11.265625l-1.515625 0zm3.9609375 -5.046875l0 -12.453125l1.890625 0l0 1.75q0.59375 -0.90625 1.5625 -1.46875q0.96875 -0.5625 2.21875 -0.5625q1.375 0 2.25 0.578125q0.890625 0.578125 1.265625 1.609375q1.46875 -2.1875 3.84375 -2.1875q1.84375 0 2.84375 1.03125q1.0 1.03125 1.0 3.15625l0 8.546875l-2.109375 0l0 -7.84375q0 -1.265625 -0.203125 -1.8125q-0.203125 -0.5625 -0.75 -0.90625q-0.53125 -0.34375 -1.25 -0.34375q-1.3125 0 -2.1875 0.875q-0.859375 0.875 -0.859375 2.796875l0 7.234375l-2.109375 0l0 -8.09375q0 -1.40625 -0.515625 -2.109375q-0.515625 -0.703125 -1.6875 -0.703125q-0.890625 0 -1.65625 0.46875q-0.75 0.46875 -1.09375 1.375q-0.34375 0.90625 -0.34375 2.609375l0 6.453125l-2.109375 0zm28.523438 -4.015625l2.171875 0.28125q-0.515625 1.90625 -1.90625 2.96875q-1.390625 1.046875 -3.5625 1.046875q-2.734375 0 -4.34375 -1.671875q-1.59375 -1.6875 -1.59375 -4.734375q0 -3.140625 1.609375 -4.875q1.625 -1.734375 4.203125 -1.734375q2.5 0 4.078125 1.703125q1.59375 1.703125 1.59375 4.78125q0 0.1875 -0.015625 0.5625l-9.28125 0q0.109375 2.046875 1.15625 3.140625q1.046875 1.09375 2.609375 1.09375q1.15625 0 1.96875 -0.609375q0.828125 -0.609375 1.3125 -1.953125zm-6.9375 -3.40625l6.953125 0q-0.140625 -1.5625 -0.796875 -2.359375q-1.0 -1.21875 -2.609375 -1.21875q-1.453125 0 -2.453125 0.984375q-0.984375 0.96875 -1.09375 2.59375zm13.144531 12.46875l-1.515625 0q3.5 -5.625 3.5 -11.265625q0 -2.203125 -0.5 -4.359375q-0.390625 -1.765625 -1.109375 -3.3750076q-0.453125 -1.0625 -1.890625 -3.515625l1.515625 0q2.203125 2.9375 3.25 5.9062576q0.90625 2.546875 0.90625 5.34375q0 3.15625 -1.21875 6.109375q-1.203125 2.953125 -2.9375 5.15625z" fill-rule="nonzero"/><path fill="#000000" d="m121.76825 170.42085l-6.65625 -17.1875l2.453125 0l4.46875 12.484375q0.546875 1.5 0.90625 2.8125q0.390625 -1.40625 0.921875 -2.8125l4.640625 -12.484375l2.328125 0l-6.734375 17.1875l-2.328125 0zm10.5234375 -10.046875l0 -2.40625l2.40625 0l0 2.40625l-2.40625 0zm0 10.046875l0 -2.40625l2.40625 0l0 2.40625l-2.40625 0zm12.6953125 0l0 -17.1875l2.109375 0l0 17.1875l-2.109375 0zm5.3945312 -14.75l0 -2.4375l2.109375 0l0 2.4375l-2.109375 0zm0 14.75l0 -12.453125l2.109375 0l0 12.453125l-2.109375 0zm13.394531 0l0 -1.578125q-1.1875 1.859375 -3.484375 1.859375q-1.484375 0 -2.734375 -0.8125q-1.25 -0.828125 -1.9375 -2.296875q-0.671875 -1.46875 -0.671875 -3.390625q0 -1.859375 0.609375 -3.375q0.625 -1.515625 1.859375 -2.328125q1.25 -0.8125 2.78125 -0.8125q1.125 0 2.0 0.484375q0.890625 0.46875 1.4375 1.234375l0 -6.171875l2.09375 0l0 17.1875l-1.953125 0zm-6.671875 -6.21875q0 2.390625 1.0 3.578125q1.015625 1.1875 2.390625 1.1875q1.390625 0 2.34375 -1.125q0.96875 -1.140625 0.96875 -3.453125q0 -2.5625 -0.984375 -3.75q-0.984375 -1.203125 -2.421875 -1.203125q-1.40625 0 -2.359375 1.15625q-0.9375 1.140625 -0.9375 3.609375zm22.832031 -0.109375q0 2.875 -1.4375 4.671875q-1.5625 1.9375 -4.375 1.9375q-2.734375 0 -4.265625 -1.90625q-1.390625 -1.765625 -1.390625 -4.578125q0 -0.1875 0.015625 -0.5625l9.28125 0q-0.109375 -1.828125 -1.0 -2.953125q-1.015625 -1.28125 -2.765625 -1.28125q-2.375 0 -3.28125 2.5625l-2.1875 -0.265625q1.09375 -4.03125 5.484375 -4.03125q2.859375 0 4.4375 1.78125q1.484375 1.703125 1.484375 4.625zm-2.296875 1.296875l-6.953125 0q0.140625 1.578125 0.796875 2.359375q1.015625 1.21875 2.625 1.21875q1.53125 0 2.5 -1.03125q0.921875 -0.984375 1.03125 -2.546875zm4.7070312 5.03125l0 -17.1875l2.109375 0l0 17.1875l-2.109375 0zm16.078125 5.046875q-1.734375 -2.203125 -2.953125 -5.15625q-1.203125 -2.953125 -1.203125 -6.109375q0 -2.796875 0.90625 -5.34375q1.046875 -2.96875 3.25 -5.90625l1.515625 0q-1.421875 2.4375 -1.875 3.46875q-0.71875 1.625 -1.125 3.375q-0.5 2.203125 -0.5 4.40625q0 5.640625 3.5 11.265625l-1.515625 0zm3.1171875 -8.765625l2.09375 -0.328125q0.171875 1.25 0.96875 1.921875q0.8125 0.671875 2.25 0.671875q1.453125 0 2.15625 -0.59375q0.703125 -0.59375 0.703125 -1.390625q0 -0.71875 -0.625 -1.125q-0.421875 -0.28125 -2.15625 -0.71875q-2.3125 -0.578125 -3.21875 -1.0q-0.890625 -0.4375 -1.359375 -1.1875q-0.453125 -0.765625 -0.453125 -1.671875q0 -0.828125 0.375 -1.53125q0.390625 -0.71875 1.046875 -1.1875q0.484375 -0.359375 1.328125 -0.609375q0.859375 -0.265625 1.828125 -0.265625q1.46875 0 2.578125 0.421875q1.109375 0.421875 1.625 1.15625q0.53125 0.71875 0.734375 1.921875l-2.0625 0.28125q-0.140625 -0.96875 -0.8125 -1.5q-0.671875 -0.546875 -1.90625 -0.546875q-1.453125 0 -2.078125 0.484375q-0.625 0.484375 -0.625 1.125q0 0.40625 0.265625 0.734375q0.25 0.34375 0.8125 0.5625q0.3125 0.125 1.859375 0.546875q2.234375 0.59375 3.109375 0.984375q0.890625 0.375 1.390625 1.109375q0.515625 0.71875 0.515625 1.796875q0 1.046875 -0.625 1.984375q-0.609375 0.9375 -1.765625 1.453125q-1.15625 0.5 -2.625 0.5q-2.421875 0 -3.703125 -1.0q-1.265625 -1.015625 -1.625 -3.0zm21.375 -0.296875l2.171875 0.28125q-0.515625 1.90625 -1.90625 2.96875q-1.390625 1.046875 -3.5625 1.046875q-2.734375 0 -4.34375 -1.671875q-1.59375 -1.6875 -1.59375 -4.734375q0 -3.140625 1.609375 -4.875q1.625 -1.734375 4.203125 -1.734375q2.5 0 4.078125 1.703125q1.59375 1.703125 1.59375 4.78125q0 0.1875 -0.015625 0.5625l-9.28125 0q0.109375 2.046875 1.15625 3.140625q1.046875 1.09375 2.609375 1.09375q1.15625 0 1.96875 -0.609375q0.828125 -0.609375 1.3125 -1.953125zm-6.9375 -3.40625l6.953125 0q-0.140625 -1.5625 -0.796875 -2.359375q-1.0 -1.21875 -2.609375 -1.21875q-1.453125 0 -2.453125 0.984375q-0.984375 0.96875 -1.09375 2.59375zm20.285156 3.40625l2.171875 0.28125q-0.515625 1.90625 -1.90625 2.96875q-1.390625 1.046875 -3.5625 1.046875q-2.734375 0 -4.34375 -1.671875q-1.59375 -1.6875 -1.59375 -4.734375q0 -3.140625 1.609375 -4.875q1.625 -1.734375 4.203125 -1.734375q2.5 0 4.078125 1.703125q1.59375 1.703125 1.59375 4.78125q0 0.1875 -0.015625 0.5625l-9.28125 0q0.109375 2.046875 1.15625 3.140625q1.046875 1.09375 2.609375 1.09375q1.15625 0 1.96875 -0.609375q0.828125 -0.609375 1.3125 -1.953125zm-6.9375 -3.40625l6.953125 0q-0.140625 -1.5625 -0.796875 -2.359375q-1.0 -1.21875 -2.609375 -1.21875q-1.453125 0 -2.453125 0.984375q-0.984375 0.96875 -1.09375 2.59375zm13.144531 12.46875l-1.515625 0q3.5 -5.625 3.5 -11.265625q0 -2.203125 -0.5 -4.359375q-0.390625 -1.765625 -1.109375 -3.375q-0.453125 -1.0625 -1.890625 -3.515625l1.515625 0q2.203125 2.9375 3.25 5.90625q0.90625 2.546875 0.90625 5.34375q0 3.15625 -1.21875 6.109375q-1.203125 2.953125 -2.9375 5.15625z" fill-rule="nonzero"/><path fill="#000000" d="m116.08075 193.70523l2.140625 -0.1875q0.15625 1.28125 0.703125 2.109375q0.5625 0.828125 1.734375 1.34375q1.171875 0.5 2.640625 0.5q1.296875 0 2.296875 -0.375q1.0 -0.390625 1.484375 -1.0625q0.484375 -0.6875 0.484375 -1.484375q0 -0.796875 -0.46875 -1.40625q-0.46875 -0.609375 -1.546875 -1.015625q-0.6875 -0.265625 -3.0625 -0.828125q-2.359375 -0.578125 -3.3125 -1.078125q-1.234375 -0.640625 -1.84375 -1.59375q-0.59375 -0.96875 -0.59375 -2.140625q0 -1.3125 0.734375 -2.4375q0.75 -1.125 2.15625 -1.703125q1.421875 -0.59375 3.15625 -0.59375q1.90625 0 3.359375 0.609375q1.46875 0.609375 2.25 1.8125q0.796875 1.1875 0.84375 2.703125l-2.171875 0.171875q-0.171875 -1.640625 -1.1875 -2.46875q-1.015625 -0.828125 -3.0 -0.828125q-2.0625 0 -3.015625 0.765625q-0.9375 0.75 -0.9375 1.8125q0 0.921875 0.671875 1.515625q0.65625 0.609375 3.421875 1.234375q2.78125 0.625 3.8125 1.09375q1.5 0.6875 2.203125 1.75q0.71875 1.0625 0.71875 2.4375q0 1.375 -0.78125 2.59375q-0.78125 1.203125 -2.25 1.890625q-1.46875 0.671875 -3.3125 0.671875q-2.328125 0 -3.90625 -0.671875q-1.578125 -0.6875 -2.484375 -2.046875q-0.890625 -1.375 -0.9375 -3.09375zm16.523438 -9.234375l0 -2.4375l2.109375 0l0 2.4375l-2.109375 0zm0 14.75l0 -12.453125l2.109375 0l0 12.453125l-2.109375 0zm5.3164062 0l0 -12.453125l1.890625 0l0 1.75q0.59375 -0.90625 1.5625 -1.46875q0.96875 -0.5625 2.21875 -0.5625q1.375 0 2.25 0.578125q0.890625 0.578125 1.265625 1.609375q1.46875 -2.1875 3.84375 -2.1875q1.84375 0 2.84375 1.03125q1.0 1.03125 1.0 3.15625l0 8.546875l-2.109375 0l0 -7.84375q0 -1.265625 -0.203125 -1.8125q-0.203125 -0.5625 -0.75 -0.90625q-0.53125 -0.34375 -1.25 -0.34375q-1.3125 0 -2.1875 0.875q-0.859375 0.875 -0.859375 2.796875l0 7.234375l-2.109375 0l0 -8.09375q0 -1.40625 -0.515625 -2.109375q-0.515625 -0.703125 -1.6875 -0.703125q-0.890625 0 -1.65625 0.46875q-0.75 0.46875 -1.09375 1.375q-0.34375 0.90625 -0.34375 2.609375l0 6.453125l-2.109375 0zm19.992188 4.765625l0 -17.21875l1.921875 0l0 1.625q0.6875 -0.953125 1.53125 -1.421875q0.859375 -0.484375 2.078125 -0.484375q1.59375 0 2.8125 0.828125q1.21875 0.8125 1.84375 2.3125q0.625 1.5 0.625 3.28125q0 1.90625 -0.6875 3.4375q-0.6875 1.53125 -2.0 2.34375q-1.296875 0.8125 -2.734375 0.8125q-1.0625 0 -1.90625 -0.4375q-0.828125 -0.453125 -1.375 -1.140625l0 6.0625l-2.109375 0zm1.921875 -10.921875q0 2.40625 0.96875 3.5625q0.96875 1.140625 2.359375 1.140625q1.40625 0 2.40625 -1.1875q1.0 -1.1875 1.0 -3.6875q0 -2.375 -0.984375 -3.5625q-0.96875 -1.1875 -2.328125 -1.1875q-1.359375 0 -2.390625 1.265625q-1.03125 1.25 -1.03125 3.65625zm11.378906 6.15625l0 -17.1875l2.109375 0l0 17.1875l-2.109375 0zm13.910156 -4.015625l2.171875 0.28125q-0.515625 1.90625 -1.90625 2.96875q-1.390625 1.046875 -3.5625 1.046875q-2.734375 0 -4.34375 -1.671875q-1.59375 -1.6875 -1.59375 -4.734375q0 -3.140625 1.609375 -4.875q1.625 -1.734375 4.203125 -1.734375q2.5 0 4.078125 1.703125q1.59375 1.703125 1.59375 4.78125q0 0.1875 -0.015625 0.5625l-9.28125 0q0.109375 2.046875 1.15625 3.140625q1.046875 1.09375 2.609375 1.09375q1.15625 0 1.96875 -0.609375q0.828125 -0.609375 1.3125 -1.953125zm-6.9375 -3.40625l6.953125 0q-0.140625 -1.5625 -0.796875 -2.359375q-1.0 -1.21875 -2.609375 -1.21875q-1.453125 0 -2.453125 0.984375q-0.984375 0.96875 -1.09375 2.59375zm18.703125 7.421875l0 -17.1875l6.46875 0q1.71875 0 2.625 0.171875q1.265625 0.203125 2.109375 0.796875q0.859375 0.59375 1.375 1.671875q0.53125 1.0625 0.53125 2.328125q0 2.203125 -1.40625 3.71875q-1.390625 1.515625 -5.03125 1.515625l-4.40625 0l0 6.984375l-2.265625 0zm2.265625 -9.015625l4.4375 0q2.203125 0 3.125 -0.8125q0.9375 -0.828125 0.9375 -2.3125q0 -1.078125 -0.546875 -1.84375q-0.546875 -0.765625 -1.4375 -1.015625q-0.578125 -0.15625 -2.125 -0.15625l-4.390625 0l0 6.140625zm21.585938 7.484375q-1.171875 0.984375 -2.265625 1.40625q-1.078125 0.40625 -2.3125 0.40625q-2.046875 0 -3.15625 -1.0q-1.09375 -1.0 -1.09375 -2.5625q0 -0.921875 0.40625 -1.671875q0.421875 -0.75 1.09375 -1.203125q0.671875 -0.46875 1.515625 -0.703125q0.625 -0.15625 1.875 -0.3125q2.5625 -0.3125 3.765625 -0.734375q0.015625 -0.421875 0.015625 -0.546875q0 -1.28125 -0.609375 -1.8125q-0.796875 -0.71875 -2.390625 -0.71875q-1.5 0 -2.203125 0.53125q-0.703125 0.515625 -1.046875 1.84375l-2.0625 -0.28125q0.28125 -1.328125 0.921875 -2.140625q0.640625 -0.8125 1.859375 -1.25q1.21875 -0.453125 2.828125 -0.453125q1.59375 0 2.59375 0.375q1.0 0.375 1.46875 0.953125q0.46875 0.5625 0.65625 1.4375q0.09375 0.53125 0.09375 1.9375l0 2.8125q0 2.9375 0.140625 3.71875q0.140625 0.78125 0.53125 1.5l-2.203125 0q-0.328125 -0.65625 -0.421875 -1.53125zm-0.171875 -4.71875q-1.15625 0.46875 -3.453125 0.796875q-1.296875 0.1875 -1.84375 0.421875q-0.53125 0.234375 -0.828125 0.6875q-0.28125 0.453125 -0.28125 1.0q0 0.84375 0.625 1.40625q0.640625 0.5625 1.875 0.5625q1.21875 0 2.171875 -0.53125q0.953125 -0.53125 1.390625 -1.453125q0.34375 -0.71875 0.34375 -2.109375l0 -0.78125zm4.5507812 2.53125l2.09375 -0.328125q0.171875 1.25 0.96875 1.921875q0.8125 0.671875 2.25 0.671875q1.453125 0 2.15625 -0.59375q0.703125 -0.59375 0.703125 -1.390625q0 -0.71875 -0.625 -1.125q-0.421875 -0.28125 -2.15625 -0.71875q-2.3125 -0.578125 -3.21875 -1.0q-0.890625 -0.4375 -1.359375 -1.1875q-0.453125 -0.765625 -0.453125 -1.671875q0 -0.828125 0.375 -1.53125q0.390625 -0.71875 1.046875 -1.1875q0.484375 -0.359375 1.328125 -0.609375q0.859375 -0.265625 1.828125 -0.265625q1.46875 0 2.578125 0.421875q1.109375 0.421875 1.625 1.15625q0.53125 0.71875 0.734375 1.921875l-2.0625 0.28125q-0.140625 -0.96875 -0.8125 -1.5q-0.671875 -0.546875 -1.90625 -0.546875q-1.453125 0 -2.078125 0.484375q-0.625 0.484375 -0.625 1.125q0 0.40625 0.265625 0.734375q0.25 0.34375 0.8125 0.5625q0.3125 0.125 1.859375 0.546875q2.234375 0.59375 3.109375 0.984375q0.890625 0.375 1.390625 1.109375q0.515625 0.71875 0.515625 1.796875q0 1.046875 -0.625 1.984375q-0.609375 0.9375 -1.765625 1.453125q-1.15625 0.5 -2.625 0.5q-2.421875 0 -3.703125 -1.0q-1.265625 -1.015625 -1.625 -3.0zm17.453125 1.828125l0.3125 1.859375q-0.890625 0.203125 -1.59375 0.203125q-1.15625 0 -1.796875 -0.359375q-0.625 -0.375 -0.890625 -0.96875q-0.25 -0.59375 -0.25 -2.484375l0 -7.171875l-1.546875 0l0 -1.640625l1.546875 0l0 -3.078125l2.09375 -1.265625l0 4.34375l2.125 0l0 1.640625l-2.125 0l0 7.28125q0 0.90625 0.109375 1.171875q0.125 0.25 0.375 0.40625q0.25 0.140625 0.71875 0.140625q0.34375 0 0.921875 -0.078125z" fill-rule="nonzero"/><path fill="#000000" fill-opacity="0.0" d="m622.0105 356.57742l367.1181 0l0 75.93701l-367.1181 0z" fill-rule="evenodd"/><path fill="#000000" d="m632.448 403.1587l4.046875 -0.640625q0.34375 2.4375 1.90625 3.734375q1.5625 1.296875 4.359375 1.296875q2.828125 0 4.1875 -1.140625q1.375 -1.15625 1.375 -2.703125q0 -1.390625 -1.203125 -2.1875q-0.84375 -0.546875 -4.1875 -1.390625q-4.515625 -1.140625 -6.265625 -1.96875q-1.734375 -0.828125 -2.640625 -2.296875q-0.890625 -1.484375 -0.890625 -3.25q0 -1.625 0.734375 -3.0q0.734375 -1.375 2.015625 -2.296875q0.953125 -0.703125 2.609375 -1.1875q1.65625 -0.484375 3.546875 -0.484375q2.84375 0 4.984375 0.828125q2.15625 0.8125 3.1875 2.21875q1.03125 1.390625 1.40625 3.734375l-4.0 0.546875q-0.28125 -1.859375 -1.59375 -2.90625q-1.296875 -1.0625 -3.6875 -1.0625q-2.828125 0 -4.046875 0.9375q-1.203125 0.9375 -1.203125 2.1875q0 0.796875 0.5 1.4375q0.5 0.65625 1.578125 1.09375q0.609375 0.234375 3.625 1.046875q4.34375 1.15625 6.0625 1.90625q1.71875 0.734375 2.703125 2.15625q0.984375 1.40625 0.984375 3.5q0 2.046875 -1.203125 3.859375q-1.1875 1.8125 -3.453125 2.8125q-2.25 0.984375 -5.09375 0.984375q-4.71875 0 -7.1875 -1.953125q-2.46875 -1.96875 -3.15625 -5.8125zm40.75 4.234375q-2.28125 1.9375 -4.390625 2.734375q-2.09375 0.796875 -4.515625 0.796875q-3.984375 0 -6.125 -1.9375q-2.140625 -1.953125 -2.140625 -4.984375q0 -1.78125 0.796875 -3.25q0.8125 -1.46875 2.125 -2.359375q1.3125 -0.890625 2.953125 -1.34375q1.203125 -0.3125 3.640625 -0.609375q4.96875 -0.59375 7.3125 -1.421875q0.03125 -0.84375 0.03125 -1.0625q0 -2.515625 -1.171875 -3.53125q-1.5625 -1.390625 -4.65625 -1.390625q-2.90625 0 -4.28125 1.015625q-1.375 1.015625 -2.03125 3.578125l-4.015625 -0.546875q0.546875 -2.5625 1.796875 -4.140625q1.25 -1.59375 3.625 -2.4375q2.375 -0.859375 5.484375 -0.859375q3.109375 0 5.046875 0.734375q1.9375 0.71875 2.84375 1.828125q0.90625 1.09375 1.28125 2.78125q0.203125 1.046875 0.203125 3.78125l0 5.46875q0 5.71875 0.25 7.234375q0.265625 1.515625 1.046875 2.90625l-4.28125 0q-0.640625 -1.28125 -0.828125 -2.984375zm-0.34375 -9.15625q-2.234375 0.90625 -6.6875 1.546875q-2.53125 0.359375 -3.578125 0.828125q-1.046875 0.453125 -1.625 1.328125q-0.5625 0.875 -0.5625 1.9375q0 1.640625 1.234375 2.734375q1.25 1.09375 3.640625 1.09375q2.359375 0 4.203125 -1.03125q1.859375 -1.03125 2.71875 -2.828125q0.65625 -1.390625 0.65625 -4.109375l0 -1.5zm10.463623 12.140625l0 -24.1875l3.6875 0l0 3.65625q1.421875 -2.5625 2.609375 -3.375q1.203125 -0.828125 2.625 -0.828125q2.078125 0 4.21875 1.3125l-1.40625 3.8125q-1.5 -0.890625 -3.015625 -0.890625q-1.34375 0 -2.421875 0.8125q-1.0625 0.796875 -1.515625 2.234375q-0.6875 2.1875 -0.6875 4.78125l0 12.671875l-4.09375 0zm3.0625 7.40625l0 -4.671875l4.671875 0l0 4.671875l-4.671875 0zm12.536865 -36.09375l0 -4.703125l4.109375 0l0 4.703125l-4.109375 0zm0 28.6875l0 -24.1875l4.109375 0l0 24.1875l-4.109375 0zm21.140625 0l0 -3.328125l15.40625 -17.671875q-2.625 0.125 -4.625 0.125l-9.859375 0l0 -3.3125l19.765625 0l0 2.703125l-13.09375 15.359375l-2.53125 2.796875q2.75 -0.203125 5.171875 -0.203125l11.1875 0l0 3.53125l-21.421875 0zm46.65625 -12.296875q0 5.59375 -2.796875 9.078125q-3.03125 3.765625 -8.5 3.765625q-5.328125 0 -8.296875 -3.71875q-2.703125 -3.40625 -2.703125 -8.875q0 -0.375 0.015625 -1.09375l18.046875 0q-0.203125 -3.5625 -1.9375 -5.75q-1.953125 -2.484375 -5.375 -2.484375q-4.59375 0 -6.375 4.96875l-4.234375 -0.515625q2.109375 -7.8125 10.640625 -7.8125q5.578125 0 8.625 3.453125q2.890625 3.3125 2.890625 8.984375zm-4.453125 2.53125l-13.515625 0q0.265625 3.046875 1.546875 4.578125q1.953125 2.359375 5.078125 2.359375q2.984375 0 4.875 -2.0q1.796875 -1.921875 2.015625 -4.9375zm26.676208 9.765625l-7.40625 -24.1875l4.234375 0l3.84375 13.953125l1.4375 5.203125q0.09375 -0.390625 1.25 -5.0l3.859375 -14.15625l4.21875 0l3.609375 14.03125l1.21875 4.625l1.390625 -4.671875l4.140625 -13.984375l3.984375 0l-7.5625 24.1875l-4.265625 0l-3.84375 -14.484375l-0.9375 -4.125l-4.890625 18.609375l-4.28125 0zm45.08429 0l0 -3.546875q-2.828125 4.09375 -7.6875 4.09375q-2.140625 0 -4.0 -0.8125q-1.84375 -0.828125 -2.75 -2.0625q-0.90625 -1.25 -1.265625 -3.046875q-0.25 -1.203125 -0.25 -3.828125l0 -14.984375l4.09375 0l0 13.40625q0 3.21875 0.25 4.328125q0.390625 1.625 1.640625 2.546875q1.265625 0.921875 3.109375 0.921875q1.84375 0 3.453125 -0.9375q1.625 -0.953125 2.296875 -2.578125q0.671875 -1.640625 0.671875 -4.734375l0 -12.953125l4.09375 0l0 24.1875l-3.65625 0zm9.994873 0l0 -33.390625l4.09375 0l0 33.390625l-4.09375 0zm10.474915 -28.6875l0 -4.703125l4.109375 0l0 4.703125l-4.109375 0zm0 28.6875l0 -24.1875l4.109375 0l0 24.1875l-4.109375 0zm26.037354 0l0 -3.046875q-2.296875 3.59375 -6.765625 3.59375q-2.890625 0 -5.3125 -1.59375q-2.421875 -1.59375 -3.765625 -4.453125q-1.328125 -2.859375 -1.328125 -6.578125q0 -3.625 1.203125 -6.5625q1.21875 -2.953125 3.625 -4.515625q2.421875 -1.578125 5.40625 -1.578125q2.1875 0 3.890625 0.921875q1.703125 0.921875 2.78125 2.390625l0 -11.96875l4.078125 0l0 33.390625l-3.8125 0zm-12.953125 -12.078125q0 4.65625 1.953125 6.953125q1.96875 2.296875 4.625 2.296875q2.6875 0 4.5625 -2.1875q1.890625 -2.203125 1.890625 -6.71875q0 -4.96875 -1.921875 -7.28125q-1.90625 -2.328125 -4.71875 -2.328125q-2.71875 0 -4.5625 2.234375q-1.828125 2.234375 -1.828125 7.03125zm44.369873 -0.21875q0 5.59375 -2.796875 9.078125q-3.03125 3.765625 -8.5 3.765625q-5.328125 0 -8.296875 -3.71875q-2.703125 -3.40625 -2.703125 -8.875q0 -0.375 0.015625 -1.09375l18.046875 0q-0.203125 -3.5625 -1.9375 -5.75q-1.953125 -2.484375 -5.375 -2.484375q-4.59375 0 -6.375 4.96875l-4.234375 -0.515625q2.109375 -7.8125 10.640625 -7.8125q5.578125 0 8.625 3.453125q2.890625 3.3125 2.890625 8.984375zm-4.453125 2.53125l-13.515625 0q0.265625 3.046875 1.546875 4.578125q1.953125 2.359375 5.078125 2.359375q2.984375 0 4.875 -2.0q1.796875 -1.921875 2.015625 -4.9375zm9.244873 9.765625l0 -24.1875l3.671875 0l0 3.390625q1.125 -1.78125 3.015625 -2.859375q1.90625 -1.078125 4.3125 -1.078125q2.6875 0 4.40625 1.109375q1.71875 1.109375 2.421875 3.125q2.875 -4.234375 7.484375 -4.234375q3.59375 0 5.53125 2.0q1.9375 1.984375 1.9375 6.125l0 16.609375l-4.078125 0l0 -15.234375q0 -2.46875 -0.40625 -3.546875q-0.390625 -1.078125 -1.4375 -1.734375q-1.046875 -0.671875 -2.46875 -0.671875q-2.546875 0 -4.234375 1.703125q-1.6875 1.6875 -1.6875 5.421875l0 14.0625l-4.09375 0l0 -15.71875q0 -2.734375 -1.0 -4.09375q-1.0 -1.375 -3.28125 -1.375q-1.734375 0 -3.203125 0.921875q-1.46875 0.90625 -2.140625 2.65625q-0.65625 1.75 -0.65625 5.0625l0 12.546875l-4.09375 0z" fill-rule="nonzero"/><path fill="#000000" fill-opacity="0.0" d="m211.92389 289.28873l100.031494 42.70865" fill-rule="evenodd"/><path stroke="#000000" stroke-width="4.0" stroke-linejoin="round" stroke-linecap="butt" d="m211.92389 289.28873l77.959076 33.28479" fill-rule="evenodd"/><path fill="#000000" stroke="#000000" stroke-width="4.0" stroke-linecap="butt" d="m287.2887 328.6498l19.288727 1.0514526l-14.100159 -13.204041z" fill-rule="evenodd"/><path fill="#000000" fill-opacity="0.0" d="m494.4987 356.57742l114.36221 42.04724" fill-rule="evenodd"/><path stroke="#000000" stroke-width="4.0" stroke-linejoin="round" stroke-linecap="butt" d="m494.4987 356.57742l91.83646 33.76526" fill-rule="evenodd"/><path fill="#000000" stroke="#000000" stroke-width="4.0" stroke-linecap="butt" d="m584.05524 396.54376l19.31726 0.06298828l-14.757385 -12.465149z" fill-rule="evenodd"/></g></svg>