<svg version="1.1" viewBox="0.0 0.0 177.43569553805773 149.9028871391076" fill="none" stroke="none" stroke-linecap="square" stroke-miterlimit="10" xmlns:xlink="http://www.w3.org/1999/xlink" xmlns="http://www.w3.org/2000/svg"><clipPath id="p.0"><path d="m0 0l177.4357 0l0 149.9029l-177.4357 0l0 -149.9029z" clip-rule="nonzero"/></clipPath><g clip-path="url(#p.0)"><path fill="#000000" fill-opacity="0.0" d="m0 0l177.4357 0l0 149.9029l-177.4357 0z" fill-rule="evenodd"/><path fill="#000000" fill-opacity="0.0" d="m53.51706 -7.5958004l83.842514 0l0 74.33071l-83.842514 0z" fill-rule="evenodd"/><path fill="#000000" d="m80.97351 18.424196l1.015625 -3.140625q3.515625 1.25 5.109375 2.15625q-0.421875 -4.015625 -0.4375 -5.515625l3.203125 0q-0.0625 2.1875 -0.5 5.484375q2.265625 -1.140625 5.21875 -2.125l1.015625 3.140625q-2.8125 0.9375 -5.515625 1.25q1.359375 1.171875 3.8125 4.171875l-2.65625 1.890625q-1.28125 -1.75 -3.03125 -4.765625q-1.640625 3.125 -2.875 4.765625l-2.609375 -1.890625q2.5625 -3.15625 3.671875 -4.171875q-2.859375 -0.5625 -5.421875 -1.25z" fill-rule="nonzero"/><path fill="#000000" fill-opacity="0.0" d="m68.97113 63.131233l643.9685 0l0 42.015747l-643.9685 0z" fill-rule="evenodd"/><path fill="#000000" fill-opacity="0.0" d="m79.55118 39.17323l-44.724407 57.00787" fill-rule="evenodd"/><path stroke="#000000" stroke-width="2.0" stroke-linejoin="round" stroke-linecap="butt" d="m79.55118 39.17323l-44.724407 57.00787" fill-rule="evenodd"/><path fill="#000000" fill-opacity="0.0" d="m4.1706038 92.91076l83.84252 0l0 54.92913l-83.84252 0z" fill-rule="evenodd"/><path fill="#000000" d="m14.561229 111.82076l0 -2.46875l13.593749 0l0 2.0q-2.015625 2.140625 -3.984375 5.671875q-1.96875 3.53125 -3.03125 7.28125q-0.78125 2.625 -1.0 5.7656174l-2.640625 0q0.046875 -2.4843674 0.96875 -5.9843674q0.9375 -3.515625 2.671875 -6.765625q1.734375 -3.265625 3.703125 -5.5l-10.281249 0z" fill-rule="nonzero"/><path fill="#000000" fill-opacity="0.0" d="m100.80577 39.17323l41.70079 60.724407" fill-rule="evenodd"/><path stroke="#000000" stroke-width="2.0" stroke-linejoin="round" stroke-linecap="butt" d="m100.80577 39.17323l41.70079 60.724407" fill-rule="evenodd"/><path fill="#000000" fill-opacity="0.0" d="m138.88977 92.91076l83.842514 0l0 54.92913l-83.842514 0z" fill-rule="evenodd"/><path fill="#000000" d="m149.12415 124.52389l2.578125 -0.34375q0.4375 2.203125 1.5 3.171875q1.078125 0.9531174 2.609375 0.9531174q1.8125 0 3.0625 -1.2499924q1.265625 -1.265625 1.265625 -3.125q0 -1.78125 -1.171875 -2.921875q-1.15625 -1.15625 -2.9375 -1.15625q-0.734375 0 -1.828125 0.28125l0.296875 -2.265625q0.25 0.03125 0.40625 0.03125q1.640625 0 2.953125 -0.859375q1.328125 -0.859375 1.328125 -2.65625q0 -1.40625 -0.96875 -2.328125q-0.953125 -0.9375 -2.46875 -0.9375q-1.5 0 -2.5 0.953125q-1.0 0.9375 -1.296875 2.828125l-2.578125 -0.46875q0.484375 -2.59375 2.15625 -4.015625q1.671875 -1.421875 4.15625 -1.421875q1.71875 0 3.171875 0.734375q1.453125 0.734375 2.21875 2.015625q0.765625 1.265625 0.765625 2.703125q0 1.359375 -0.734375 2.484375q-0.734375 1.109375 -2.15625 1.765625q1.859375 0.4375 2.890625 1.796875q1.03125 1.34375 1.03125 3.375q0 2.75 -2.015625 4.6718674q-2.0 1.90625 -5.0625 1.90625q-2.765625 0 -4.59375 -1.640625q-1.828125 -1.6562424 -2.078125 -4.2812424z" fill-rule="nonzero"/><path fill="#000000" fill-opacity="0.0" d="m330.3071 164.2441l535.5276 0l0 42.015747l-535.5276 0z" fill-rule="evenodd"/></g></svg>