<svg version="1.1" viewBox="0.0 0.0 177.43569553805773 149.9028871391076" fill="none" stroke="none" stroke-linecap="square" stroke-miterlimit="10" xmlns:xlink="http://www.w3.org/1999/xlink" xmlns="http://www.w3.org/2000/svg"><clipPath id="p.0"><path d="m0 0l177.4357 0l0 149.9029l-177.4357 0l0 -149.9029z" clip-rule="nonzero"/></clipPath><g clip-path="url(#p.0)"><path fill="#000000" fill-opacity="0.0" d="m0 0l177.4357 0l0 149.9029l-177.4357 0z" fill-rule="evenodd"/><path fill="#000000" fill-opacity="0.0" d="m53.51706 -7.5958004l83.842514 0l0 58.173225l-83.842514 0z" fill-rule="evenodd"/><path fill="#000000" d="m87.56726 28.421076l0 -6.28125l-6.234375 0l0 -2.625l6.234375 0l0 -6.234375l2.65625 0l0 6.234375l6.234375 0l0 2.625l-6.234375 0l0 6.28125l-2.65625 0z" fill-rule="nonzero"/><path fill="#000000" fill-opacity="0.0" d="m68.97113 63.131233l643.9685 0l0 42.015747l-643.9685 0z" fill-rule="evenodd"/><path fill="#000000" fill-opacity="0.0" d="m79.55118 39.17323l-44.724407 57.00787" fill-rule="evenodd"/><path stroke="#000000" stroke-width="2.0" stroke-linejoin="round" stroke-linecap="butt" d="m79.55118 39.17323l-44.724407 57.00787" fill-rule="evenodd"/><path fill="#000000" fill-opacity="0.0" d="m4.1706038 92.91076l83.84252 0l0 54.92913l-83.84252 0z" fill-rule="evenodd"/><path fill="#000000" d="m14.404979 124.52389l2.578124 -0.34375q0.4375 2.203125 1.5 3.171875q1.078125 0.9531174 2.609375 0.9531174q1.8125 0 3.0625 -1.2499924q1.265625 -1.265625 1.265625 -3.125q0 -1.78125 -1.171875 -2.921875q-1.15625 -1.15625 -2.9375 -1.15625q-0.734375 0 -1.828125 0.28125l0.296875 -2.265625q0.25 0.03125 0.40625 0.03125q1.640625 0 2.953125 -0.859375q1.328125 -0.859375 1.328125 -2.65625q0 -1.40625 -0.96875 -2.328125q-0.953125 -0.9375 -2.46875 -0.9375q-1.5 0 -2.5 0.953125q-1.0 0.9375 -1.296875 2.828125l-2.578124 -0.46875q0.484375 -2.59375 2.156249 -4.015625q1.671875 -1.421875 4.15625 -1.421875q1.71875 0 3.171875 0.734375q1.453125 0.734375 2.21875 2.015625q0.765625 1.265625 0.765625 2.703125q0 1.359375 -0.734375 2.484375q-0.734375 1.109375 -2.15625 1.765625q1.859375 0.4375 2.890625 1.796875q1.03125 1.34375 1.03125 3.375q0 2.75 -2.015625 4.6718674q-2.0 1.90625 -5.0625 1.90625q-2.765625 0 -4.59375 -1.640625q-1.828124 -1.6562424 -2.078124 -4.2812424z" fill-rule="nonzero"/><path fill="#000000" fill-opacity="0.0" d="m100.80577 39.17323l41.70079 60.724407" fill-rule="evenodd"/><path stroke="#000000" stroke-width="2.0" stroke-linejoin="round" stroke-linecap="butt" d="m100.80577 39.17323l41.70079 60.724407" fill-rule="evenodd"/><path fill="#000000" fill-opacity="0.0" d="m138.88977 92.91076l83.842514 0l0 54.92913l-83.842514 0z" fill-rule="evenodd"/><path fill="#000000" d="m157.37415 130.07076l0 -5.0312424l-9.109375 0l0 -2.359375l9.578125 -13.609375l2.109375 0l0 13.609375l2.828125 0l0 2.359375l-2.828125 0l0 5.0312424l-2.578125 0zm0 -7.3906174l0 -9.46875l-6.578125 9.46875l6.578125 0z" fill-rule="nonzero"/><path fill="#000000" fill-opacity="0.0" d="m330.3071 164.2441l535.5276 0l0 42.015747l-535.5276 0z" fill-rule="evenodd"/></g></svg>